<svg width="28" height="29" viewBox="0 0 28 29" fill="none" xmlns="http://www.w3.org/2000/svg">
<g clip-path="url(#clip0)">
<path d="M27.3723 23.0251L23.0481 18.7005C22.1868 17.8427 20.7605 17.8687 19.8692 18.7604L17.6907 20.9384C17.553 20.8625 17.4106 20.7833 17.2608 20.6992C15.8851 19.937 14.0022 18.8922 12.0208 16.9094C10.0336 14.9224 8.98781 13.0366 8.22321 11.66C8.14253 11.5141 8.06522 11.3735 7.98888 11.24L9.45099 9.78005L10.1698 9.06034C11.0625 8.16743 11.0871 6.74152 10.2278 5.88119L5.90366 1.55607C5.04438 0.696949 3.61742 0.723012 2.72476 1.61592L1.50606 2.84161L1.53937 2.87467C1.13072 3.3961 0.789244 3.99748 0.535128 4.64601C0.300881 5.26332 0.15504 5.85239 0.0883533 6.44268C-0.482624 11.1762 1.68046 15.5023 7.55079 21.3727C15.6654 29.4867 22.2047 28.8738 22.4868 28.8438C23.1012 28.7704 23.69 28.6236 24.2884 28.3912C24.9313 28.14 25.5323 27.7991 26.0534 27.3913L26.08 27.4149L27.3147 26.206C28.2055 25.3132 28.2311 23.8868 27.3723 23.0251Z" fill="white"/>
</g>
<defs>
<clipPath id="clip0">
<rect width="28" height="28" fill="white" transform="translate(0 0.896973)"/>
</clipPath>
</defs>
</svg>
