<svg width="31" height="30" viewBox="0 0 31 30" fill="none" xmlns="http://www.w3.org/2000/svg">
<path fill-rule="evenodd" clip-rule="evenodd" d="M17.1834 14.9998L29.727 2.45609C30.2889 1.89421 30.2889 0.9833 29.727 0.421414C29.1651 -0.140471 28.2542 -0.140471 27.6924 0.421414L15.1487 12.9651L2.60502 0.423332C2.04313 -0.138554 1.13223 -0.138554 0.57034 0.423332C0.00845435 0.985218 0.00845435 1.89612 0.57034 2.45801L13.114 15.0017L0.572258 27.5434C0.010372 28.1053 0.010372 29.0162 0.572258 29.5781C0.85416 29.8581 1.22044 30 1.58864 30C1.95684 30 2.32503 29.86 2.60502 29.5781L15.1487 17.0344L27.6924 29.5781C27.9743 29.8581 28.3405 30 28.7087 30C29.0769 30 29.4451 29.86 29.7251 29.5781C30.287 29.0162 30.287 28.1053 29.7251 27.5434L17.1834 14.9998Z" fill="white"/>
</svg>
