<svg width="35" height="36" viewBox="0 0 35 36" fill="none" xmlns="http://www.w3.org/2000/svg">
<g clip-path="url(#clip0)">
<path d="M26.2483 0.0340157L21.7096 0.0267334C16.6105 0.0267334 13.3152 3.40756 13.3152 8.64028V12.6117H8.75175C8.35742 12.6117 8.03809 12.9314 8.03809 13.3257V19.0799C8.03809 19.4742 8.35778 19.7935 8.75175 19.7935H13.3152V34.3131C13.3152 34.7074 13.6346 35.0267 14.0289 35.0267H19.9829C20.3773 35.0267 20.6966 34.707 20.6966 34.3131V19.7935H26.0324C26.4267 19.7935 26.746 19.4742 26.746 19.0799L26.7482 13.3257C26.7482 13.1364 26.6728 12.9551 26.5392 12.8211C26.4056 12.6871 26.2235 12.6117 26.0342 12.6117H20.6966V9.24508C20.6966 7.62694 21.0822 6.8055 23.1901 6.8055L26.2476 6.8044C26.6415 6.8044 26.9609 6.48471 26.9609 6.09073V0.747685C26.9609 0.354074 26.6419 0.034744 26.2483 0.0340157Z" fill="#27557C"/>
</g>
<defs>
<clipPath id="clip0">
<rect width="35.0004" height="35" fill="white" transform="translate(0 0.0267334)"/>
</clipPath>
</defs>
</svg>
