<svg width="30" height="31" viewBox="0 0 30 31" fill="none" xmlns="http://www.w3.org/2000/svg">
<g clip-path="url(#clip0)">
<path d="M29.7373 28.6847L22.4469 21.3942C24.4025 19.1459 25.5866 16.2124 25.5866 13.0062C25.5866 5.94852 19.846 0.2146 12.795 0.2146C5.73734 0.2146 0.00341797 5.95518 0.00341797 13.0062C0.00341797 20.0572 5.74399 25.7977 12.795 25.7977C16.0012 25.7977 18.9347 24.6137 21.183 22.6581L28.4735 29.9485C28.6464 30.1215 28.8793 30.2146 29.1054 30.2146C29.3316 30.2146 29.5644 30.1281 29.7373 29.9485C30.0832 29.6026 30.0832 29.0306 29.7373 28.6847ZM1.79278 13.0062C1.79278 6.93966 6.72847 2.01061 12.7883 2.01061C18.8549 2.01061 23.7839 6.94631 23.7839 13.0062C23.7839 19.066 18.8549 24.0084 12.7883 24.0084C6.72847 24.0084 1.79278 19.0727 1.79278 13.0062Z" fill="white"/>
<line x1="13.0566" y1="8.21265" x2="13.0566" y2="18.3462" stroke="white" stroke-width="2" stroke-linecap="round" stroke-linejoin="round"/>
<line x1="7.92676" y1="13.2156" x2="18.0603" y2="13.2156" stroke="white" stroke-width="2" stroke-linecap="round" stroke-linejoin="round"/>
</g>
<defs>
<clipPath id="clip0">
<rect width="30" height="30" fill="white" transform="translate(0 0.2146)"/>
</clipPath>
</defs>
</svg>
