<svg width="12" height="82" viewBox="0 0 12 82" fill="none" xmlns="http://www.w3.org/2000/svg">
<path d="M5.834 80.4377C5.078 80.4377 4.728 79.6957 4.728 78.9677C4.728 78.2957 4.994 77.5817 5.708 77.2877L5.26 76.5177C4.392 76.9237 3.832 77.8197 3.832 78.9677C3.832 80.3677 4.714 81.3617 5.834 81.3617C8.41 81.3617 7.416 77.2737 9.152 77.2737C9.978 77.2737 10.272 78.0577 10.272 78.8837C10.272 79.8217 9.81 80.5497 9.096 80.8017L9.558 81.5857C10.454 81.2357 11.168 80.2837 11.168 78.8837C11.168 77.3857 10.342 76.3497 9.152 76.3497C6.576 76.3497 7.57 80.4377 5.834 80.4377ZM11.168 70.6314C11.168 69.2594 10.454 68.0694 9.348 67.4954L8.9 68.2654C9.712 68.7134 10.272 69.5674 10.272 70.6314C10.272 72.1854 9.054 73.3894 7.5 73.3894C5.946 73.3894 4.728 72.1854 4.728 70.6314C4.728 69.5814 5.274 68.6994 6.1 68.3214L5.666 67.5654C4.56 68.0694 3.832 69.2454 3.832 70.6314C3.832 72.7454 5.428 74.3134 7.5 74.3134C9.572 74.3134 11.168 72.7454 11.168 70.6314ZM5.162 64.1248L4 64.1248L4 65.0488L11 65.0488L11 64.1248L7.108 64.1248C5.372 64.1248 4.784 63.0328 4.784 61.9128L3.888 61.9128C3.888 62.8088 4.182 63.6348 5.162 64.1248ZM11.168 56.6882C11.168 54.6442 9.572 53.0062 7.5 53.0062C5.428 53.0062 3.832 54.6442 3.832 56.6882C3.832 58.7322 5.428 60.3702 7.5 60.3702C9.572 60.3702 11.168 58.7322 11.168 56.6882ZM10.272 56.6882C10.272 58.2422 9.054 59.4462 7.5 59.4462C5.946 59.4462 4.728 58.2422 4.728 56.6882C4.728 55.1342 5.946 53.9302 7.5 53.9302C9.054 53.9302 10.272 55.1342 10.272 56.6882ZM11 50.34L11 49.416L0.779998 49.416L0.779998 50.34L11 50.34ZM11 46.3352L11 45.4112L0.779998 45.4113L0.779998 46.3353L11 46.3352ZM1.2 31.6905L5.372 31.6905C4.434 32.2785 3.832 33.2725 3.832 34.5185C3.832 36.4925 5.428 38.1305 7.5 38.1305C9.572 38.1305 11.168 36.4925 11.168 34.5185C11.168 33.2725 10.566 32.2785 9.628 31.6905L11 31.6905L11 30.7665L1.2 30.7665L1.2 31.6905ZM10.272 34.4485C10.272 36.0025 9.054 37.2065 7.5 37.2065C5.946 37.2065 4.728 36.0025 4.728 34.4485C4.728 32.8945 5.946 31.6905 7.5 31.6905C9.054 31.6905 10.272 32.8945 10.272 34.4485ZM11.168 24.4281C11.168 22.3841 9.572 20.7461 7.5 20.7461C5.428 20.7461 3.832 22.3841 3.832 24.4281C3.832 26.4721 5.428 28.1101 7.5 28.1101C9.572 28.1101 11.168 26.4721 11.168 24.4281ZM10.272 24.4281C10.272 25.9821 9.054 27.1861 7.5 27.1861C5.946 27.1861 4.728 25.9821 4.728 24.4281C4.728 22.8741 5.946 21.6701 7.5 21.6701C9.054 21.6701 10.272 22.8741 10.272 24.4281ZM4 9.92529L9.81 11.6473L4 13.4813L4 14.4053L9.81 16.2393L4 17.9613L4 18.9133L11 16.7573L11 15.7493L5.358 13.9433L11 12.1373L11 11.1293L4 8.97329L4 9.92529ZM3.832 3.18386C3.832 4.17786 4.21 4.98986 5.092 5.53586L4 5.53586L4 6.45986L11 6.45986L11 5.53586L7.332 5.53586C5.456 5.53586 4.728 4.49986 4.728 3.26786C4.728 2.04986 5.456 1.36386 6.702 1.36386L11 1.36386L11 0.439865L6.702 0.439865C4.952 0.439865 3.832 1.47586 3.832 3.18386Z" fill="#27557C"/>
</svg>
