<svg width="9" height="59" viewBox="0 0 9 59" fill="none" xmlns="http://www.w3.org/2000/svg">
<path d="M4.5668 57.9301C4.1368 57.9301 3.8968 57.5301 3.8968 57.0401C3.8968 56.5101 4.1068 56.1501 4.5368 55.9701L4.1268 55.2401C3.4768 55.5601 3.0868 56.2301 3.0868 57.0401C3.0868 57.5501 3.2268 57.9701 3.5068 58.3101C3.7868 58.6401 4.1468 58.8101 4.5768 58.8101C5.6368 58.8101 5.8968 57.7901 6.1068 57.0001C6.2368 56.4501 6.4568 56.0101 6.8468 56.0101C7.3168 56.0101 7.5268 56.4301 7.5268 57.0001C7.5268 57.6101 7.2268 58.0801 6.7468 58.2401L7.1768 58.9901C7.8868 58.7001 8.3468 57.9701 8.3468 57.0001C8.3468 56.4501 8.2068 56.0101 7.9368 55.6601C7.6668 55.3101 7.2968 55.1301 6.8468 55.1301C5.7768 55.1201 5.4868 56.1601 5.3168 56.9401C5.1668 57.4901 4.9568 57.9301 4.5668 57.9301ZM8.3468 51.0868C8.3468 50.1168 7.8368 49.2668 7.0468 48.8368L6.6168 49.5768C7.1468 49.8568 7.4868 50.4168 7.4868 51.0868C7.4868 51.5868 7.3168 52.0068 6.9768 52.3468C6.6368 52.6768 6.2168 52.8468 5.7168 52.8468C5.2068 52.8468 4.7868 52.6768 4.4468 52.3468C4.1068 52.0068 3.9368 51.5868 3.9368 51.0868C3.9368 50.4168 4.2868 49.8568 4.8168 49.6068L4.3968 48.8768C3.5968 49.2668 3.0868 50.0968 3.0868 51.0868C3.0868 51.8368 3.3368 52.4668 3.8468 52.9668C4.3468 53.4668 4.9668 53.7168 5.7168 53.7168C6.4668 53.7168 7.0868 53.4668 7.5968 52.9668C8.0968 52.4668 8.3468 51.8368 8.3468 51.0868ZM3.2168 46.298L3.2168 47.168L8.2168 47.168L8.2168 46.298L5.5668 46.298C5.0168 46.298 4.6268 46.148 4.3768 45.838C4.1268 45.528 4.0168 45.168 4.0368 44.738L3.1268 44.738C3.1268 45.488 3.4368 46.008 4.0568 46.298L3.2168 46.298ZM7.5868 39.1402C7.0768 38.6302 6.4568 38.3702 5.7168 38.3702C4.9768 38.3702 4.3568 38.6302 3.8468 39.1402C3.3368 39.6502 3.0868 40.2802 3.0868 41.0102C3.0868 41.7402 3.3368 42.3702 3.8468 42.8802C4.3568 43.3902 4.9768 43.6402 5.7168 43.6402C6.4568 43.6402 7.0768 43.3902 7.5868 42.8802C8.0968 42.3702 8.3468 41.7402 8.3468 41.0102C8.3468 40.2802 8.0968 39.6502 7.5868 39.1402ZM7.4968 41.0102C7.4968 41.5002 7.3268 41.9202 6.9868 42.2602C6.6468 42.6002 6.2268 42.7702 5.7168 42.7702C5.2068 42.7702 4.7868 42.6002 4.4468 42.2602C4.1068 41.9202 3.9368 41.5002 3.9368 41.0102C3.9368 40.5102 4.1068 40.0902 4.4468 39.7502C4.7868 39.4102 5.2068 39.2402 5.7168 39.2402C6.2268 39.2402 6.6468 39.4102 6.9868 39.7502C7.3268 40.0902 7.4968 40.5102 7.4968 41.0102ZM8.2168 35.6746L0.916796 35.6746L0.916796 36.5446L8.2168 36.5446L8.2168 35.6746ZM8.2168 32.6773L0.916795 32.6773L0.916796 33.5473L8.2168 33.5473L8.2168 32.6773ZM4.07679 23.11C3.4168 23.54 3.0868 24.17 3.0868 25C3.0868 25.7 3.3468 26.3 3.8568 26.79C4.3668 27.28 4.9868 27.53 5.7168 27.53C6.4468 27.53 7.0768 27.28 7.5868 26.79C8.0968 26.3 8.3468 25.7 8.3468 25C8.3468 24.17 8.0168 23.54 7.3568 23.11L8.2168 23.11L8.2168 22.24L1.21679 22.24L1.21679 23.11L4.07679 23.11ZM7.5068 24.89C7.5068 25.39 7.3368 25.81 6.9968 26.15C6.6468 26.49 6.2268 26.66 5.7168 26.66C5.2068 26.66 4.7868 26.49 4.4468 26.15C4.0968 25.81 3.9268 25.39 3.9268 24.89C3.9268 24.38 4.0968 23.96 4.4468 23.62C4.7868 23.28 5.20679 23.11 5.7168 23.11C6.2268 23.11 6.6468 23.28 6.9968 23.62C7.3368 23.96 7.5068 24.38 7.5068 24.89ZM7.58679 15.9019C7.07679 15.3919 6.45679 15.1319 5.71679 15.1319C4.97679 15.1319 4.35679 15.3919 3.84679 15.9019C3.33679 16.4119 3.08679 17.0419 3.08679 17.7719C3.08679 18.5019 3.33679 19.1319 3.8468 19.6419C4.3568 20.1519 4.9768 20.4019 5.7168 20.4019C6.4568 20.4019 7.0768 20.1519 7.5868 19.6419C8.0968 19.1319 8.3468 18.5019 8.3468 17.7719C8.3468 17.0419 8.09679 16.4119 7.58679 15.9019ZM7.49679 17.7719C7.4968 18.2619 7.3268 18.6819 6.9868 19.0219C6.6468 19.3619 6.22679 19.5319 5.7168 19.5319C5.20679 19.5319 4.78679 19.3619 4.4468 19.0219C4.10679 18.6819 3.93679 18.2619 3.93679 17.7719C3.93679 17.2719 4.10679 16.8519 4.44679 16.5119C4.78679 16.1719 5.20679 16.0019 5.71679 16.0019C6.22679 16.0019 6.64679 16.1719 6.98679 16.5119C7.32679 16.8519 7.49679 17.2719 7.49679 17.7719ZM7.02679 8.71161L3.21679 9.89161L3.21679 10.7316L7.01679 11.9116L3.21679 13.0116L3.21679 13.9216L8.21679 12.3716L8.21679 11.4816L4.51679 10.3116L8.21679 9.14161L8.21679 8.25161L3.21679 6.70161L3.21679 7.61161L7.02679 8.71161ZM3.08679 2.5163C3.08679 3.2463 3.36679 3.7863 3.93679 4.1363L3.21679 4.1363L3.21679 5.0063L8.21679 5.0063L8.21679 4.1363L5.56679 4.1363C4.44679 4.1363 3.91679 3.5563 3.91679 2.6863C3.91679 1.9163 4.38679 1.4463 5.19679 1.4463L8.21679 1.4463L8.21679 0.576298L5.14679 0.576298C3.87679 0.576298 3.08679 1.3463 3.08679 2.5163Z" fill="white"/>
</svg>
