<?xml version="1.0" encoding="iso-8859-1"?>
<!-- Generator: Adobe Illustrator 19.0.0, SVG Export Plug-In . SVG Version: 6.00 Build 0)  -->
<svg version="1.1" id="Layer_1" xmlns="http://www.w3.org/2000/svg" xmlns:xlink="http://www.w3.org/1999/xlink" x="0px" y="0px"
	 viewBox="0 0 512 512" style="enable-background:new 0 0 512 512;" xml:space="preserve">
<g>
	<g>
		<g>
			<path d="M184.167,477.867h15.667c9.816,0,17.766-7.951,17.766-17.766v-15.667c0-9.816-7.951-17.766-17.766-17.766h-15.667
				c-9.816,0-17.766,7.951-17.766,17.766V460.1C166.401,469.916,174.352,477.867,184.167,477.867z M183.468,444.433
				c0-0.39,0.31-0.7,0.7-0.7h15.667c0.39,0,0.7,0.31,0.7,0.7V460.1c0,0.39-0.31,0.7-0.7,0.7h-15.667c-0.39,0-0.7-0.31-0.7-0.7
				V444.433z"/>
			<path d="M456.533,145.067h-70.137l-6.917-27.67c-0.95-3.799-4.363-6.464-8.279-6.464h-34.133V39.031
				C337.067,17.474,319.593,0,298.035,0H85.965C64.407,0,46.933,17.474,46.933,39.031v362.035v77.124
				c0,18.673,15.136,33.809,33.809,33.809h222.515c18.673,0,33.809-15.136,33.809-33.809v-77.124V332.8h119.467
				c4.713,0,8.533-3.82,8.533-8.533V153.6C465.067,148.887,461.246,145.067,456.533,145.067z M320,478.191
				c0,9.248-7.495,16.742-16.742,16.742H80.742c-9.248,0-16.742-7.495-16.742-16.742v-60.058h256V478.191z M320,401.067H64v-332.8
				h59.733c4.713,0,8.533-3.82,8.533-8.533s-3.82-8.533-8.533-8.533H64V39.031c0-12.132,9.833-21.965,21.965-21.965h212.07
				c12.132,0,21.965,9.833,21.965,21.965v71.902h-34.133c-3.916,0-7.329,2.665-8.279,6.464l-6.917,27.67h-70.137
				c-4.713,0-8.533,3.821-8.533,8.533v170.667c0,4.713,3.82,8.533,8.533,8.533H320V401.067z M448,315.733H328.533H209.067v-153.6
				h68.267c3.916,0,7.329-2.665,8.279-6.464l6.917-27.67h36.004h36.004l6.917,27.67c0.95,3.799,4.363,6.464,8.279,6.464H448V315.733
				z"/>
			<path d="M328.533,179.2c-28.273,0-51.2,22.927-51.2,51.2c0,28.273,22.927,51.2,51.2,51.2s51.2-22.927,51.2-51.2
				C379.733,202.127,356.807,179.2,328.533,179.2z M328.533,264.533c-18.848,0-34.133-15.286-34.133-34.133
				s15.286-34.133,34.133-34.133s34.133,15.286,34.133,34.133S347.381,264.533,328.533,264.533z"/>
		</g>
	</g>
</g>
<g>
</g>
<g>
</g>
<g>
</g>
<g>
</g>
<g>
</g>
<g>
</g>
<g>
</g>
<g>
</g>
<g>
</g>
<g>
</g>
<g>
</g>
<g>
</g>
<g>
</g>
<g>
</g>
<g>
</g>
</svg>
