<svg width="173" height="173" viewBox="0 0 173 173" fill="none" xmlns="http://www.w3.org/2000/svg">
<g filter="url(#filter0_d)">
<path fill-rule="evenodd" clip-rule="evenodd" d="M91.125 42.0001H102.875C110.055 42.0001 115.875 47.8203 115.875 55.0001V69.0001C115.875 76.1798 110.055 82 102.875 82H91.125C83.9453 82 78.125 76.1798 78.125 69.0001V55.0001C78.125 47.8203 83.9453 42.0001 91.125 42.0001Z" fill="#5194FF"/>
</g>
<path fill-rule="evenodd" clip-rule="evenodd" d="M90 42.0001H104C111.18 42.0001 117 47.8203 117 55.0001V69.0001C117 76.1798 111.18 82 104 82H90C82.8203 82 77 76.1798 77 69.0001V55.0001C77 47.8203 82.8203 42.0001 90 42.0001Z" fill="white"/>
<g filter="url(#filter1_d)">
<path fill-rule="evenodd" clip-rule="evenodd" d="M38.125 93.0001H49.875C57.0547 93.0001 62.875 98.8203 62.875 106V120C62.875 127.18 57.0547 133 49.875 133H38.125C30.9453 133 25.125 127.18 25.125 120V106C25.125 98.8203 30.9453 93.0001 38.125 93.0001Z" fill="#5194FF"/>
</g>
<path fill-rule="evenodd" clip-rule="evenodd" d="M37 93.0001H51.0001C58.1797 93.0001 64 98.8203 64 106V120C64 127.18 58.1797 133 51.0001 133H37C29.8203 133 24 127.18 24 120V106C24 98.8203 29.8203 93.0001 37 93.0001Z" fill="white"/>
<g filter="url(#filter2_d)">
<path fill-rule="evenodd" clip-rule="evenodd" d="M136.438 60H138.562C143.775 60 148 64.2253 148 69.4375V72.5624C148 77.7746 143.775 82 138.562 82H136.438C131.225 82 127 77.7746 127 72.5624V69.4375C127 64.2253 131.225 60 136.438 60Z" fill="white"/>
</g>
<path fill-rule="evenodd" clip-rule="evenodd" d="M137 60H139C144.523 60 149 64.4772 149 70.0001V71.9999C149 77.5228 144.523 82 139 82H137C131.477 82 127 77.5228 127 71.9999V70.0001C127 64.4772 131.477 60 137 60Z" fill="white"/>
<g filter="url(#filter3_d)">
<path fill-rule="evenodd" clip-rule="evenodd" d="M95.4375 10H97.5625C102.775 10 107 14.2254 107 19.4376V22.5624C107 27.7747 102.775 32 97.5625 32H95.4375C90.2254 32 86 27.7747 86 22.5624V19.4376C86 14.2254 90.2254 10 95.4375 10Z" fill="white"/>
</g>
<path fill-rule="evenodd" clip-rule="evenodd" d="M96 10H98C103.523 10 108 14.4772 108 20.0001V21.9999C108 27.5228 103.523 32 98 32H96C90.4771 32 86 27.5228 86 21.9999V20.0001C86 14.4772 90.4771 10 96 10Z" fill="white"/>
<g filter="url(#filter4_d)">
<path fill-rule="evenodd" clip-rule="evenodd" d="M51.4374 60H53.5625C58.7747 60 63 64.2253 63 69.4375V72.5624C63 77.7746 58.7747 82 53.5625 82H51.4374C46.2254 82 42 77.7746 42 72.5624V69.4375C42 64.2253 46.2254 60 51.4374 60Z" fill="white"/>
</g>
<path fill-rule="evenodd" clip-rule="evenodd" d="M52 60H54C59.5228 60 64 64.4772 64 70.0001V71.9999C64 77.5228 59.5228 82 54 82H52C46.4771 82 42 77.5228 42 71.9999V70.0001C42 64.4772 46.4771 60 52 60Z" fill="white"/>
<path fill-rule="evenodd" clip-rule="evenodd" d="M59 144C61.7614 144 64 146.239 64 149C64 151.762 61.7614 154 59 154C56.2386 154 54 151.762 54 149C54 146.239 56.2386 144 59 144Z" fill="white"/>
<path fill-rule="evenodd" clip-rule="evenodd" d="M27 71.9999C29.7614 71.9999 32 74.2386 32 77.0001C32 79.7615 29.7614 82 27 82C24.2386 82 22 79.7615 22 77.0001C22 74.2386 24.2386 71.9999 27 71.9999Z" fill="white"/>
<path fill-rule="evenodd" clip-rule="evenodd" d="M133 42.0001C135.761 42.0001 138 44.2386 138 47C138 49.7615 135.761 51.9999 133 51.9999C130.239 51.9999 128 49.7615 128 47C128 44.2386 130.239 42.0001 133 42.0001Z" fill="white"/>
<defs>
<filter id="filter0_d" x="53.1249" y="32" width="87.75" height="89.9999" filterUnits="userSpaceOnUse" color-interpolation-filters="sRGB">
<feFlood flood-opacity="0" result="BackgroundImageFix"/>
<feColorMatrix in="SourceAlpha" type="matrix" values="0 0 0 0 0 0 0 0 0 0 0 0 0 0 0 0 0 0 127 0"/>
<feOffset dy="15"/>
<feGaussianBlur stdDeviation="12.5"/>
<feColorMatrix type="matrix" values="0 0 0 0 0.278431 0 0 0 0 0.317647 0 0 0 0 0.4 0 0 0 0.15 0"/>
<feBlend mode="normal" in2="BackgroundImageFix" result="effect1_dropShadow"/>
<feBlend mode="normal" in="SourceGraphic" in2="effect1_dropShadow" result="shape"/>
</filter>
<filter id="filter1_d" x="0.124939" y="83.0002" width="87.75" height="89.9998" filterUnits="userSpaceOnUse" color-interpolation-filters="sRGB">
<feFlood flood-opacity="0" result="BackgroundImageFix"/>
<feColorMatrix in="SourceAlpha" type="matrix" values="0 0 0 0 0 0 0 0 0 0 0 0 0 0 0 0 0 0 127 0"/>
<feOffset dy="15"/>
<feGaussianBlur stdDeviation="12.5"/>
<feColorMatrix type="matrix" values="0 0 0 0 0.278431 0 0 0 0 0.317647 0 0 0 0 0.4 0 0 0 0.15 0"/>
<feBlend mode="normal" in2="BackgroundImageFix" result="effect1_dropShadow"/>
<feBlend mode="normal" in="SourceGraphic" in2="effect1_dropShadow" result="shape"/>
</filter>
<filter id="filter2_d" x="102" y="50" width="70.9999" height="72" filterUnits="userSpaceOnUse" color-interpolation-filters="sRGB">
<feFlood flood-opacity="0" result="BackgroundImageFix"/>
<feColorMatrix in="SourceAlpha" type="matrix" values="0 0 0 0 0 0 0 0 0 0 0 0 0 0 0 0 0 0 127 0"/>
<feOffset dy="15"/>
<feGaussianBlur stdDeviation="12.5"/>
<feColorMatrix type="matrix" values="0 0 0 0 0.278431 0 0 0 0 0.317647 0 0 0 0 0.4 0 0 0 0.15 0"/>
<feBlend mode="normal" in2="BackgroundImageFix" result="effect1_dropShadow"/>
<feBlend mode="normal" in="SourceGraphic" in2="effect1_dropShadow" result="shape"/>
</filter>
<filter id="filter3_d" x="60.9999" y="0" width="71" height="72" filterUnits="userSpaceOnUse" color-interpolation-filters="sRGB">
<feFlood flood-opacity="0" result="BackgroundImageFix"/>
<feColorMatrix in="SourceAlpha" type="matrix" values="0 0 0 0 0 0 0 0 0 0 0 0 0 0 0 0 0 0 127 0"/>
<feOffset dy="15"/>
<feGaussianBlur stdDeviation="12.5"/>
<feColorMatrix type="matrix" values="0 0 0 0 0.278431 0 0 0 0 0.317647 0 0 0 0 0.4 0 0 0 0.15 0"/>
<feBlend mode="normal" in2="BackgroundImageFix" result="effect1_dropShadow"/>
<feBlend mode="normal" in="SourceGraphic" in2="effect1_dropShadow" result="shape"/>
</filter>
<filter id="filter4_d" x="16.9999" y="50" width="71" height="72" filterUnits="userSpaceOnUse" color-interpolation-filters="sRGB">
<feFlood flood-opacity="0" result="BackgroundImageFix"/>
<feColorMatrix in="SourceAlpha" type="matrix" values="0 0 0 0 0 0 0 0 0 0 0 0 0 0 0 0 0 0 127 0"/>
<feOffset dy="15"/>
<feGaussianBlur stdDeviation="12.5"/>
<feColorMatrix type="matrix" values="0 0 0 0 0.278431 0 0 0 0 0.317647 0 0 0 0 0.4 0 0 0 0.15 0"/>
<feBlend mode="normal" in2="BackgroundImageFix" result="effect1_dropShadow"/>
<feBlend mode="normal" in="SourceGraphic" in2="effect1_dropShadow" result="shape"/>
</filter>
</defs>
</svg>
