<svg width="197" height="208" viewBox="0 0 197 208" fill="none" xmlns="http://www.w3.org/2000/svg">
<g filter="url(#filter0_d)">
<path fill-rule="evenodd" clip-rule="evenodd" d="M116.125 97.9999H127.875C135.055 97.9999 140.875 103.82 140.875 111V125C140.875 132.18 135.055 138 127.875 138H116.125C108.945 138 103.125 132.18 103.125 125V111C103.125 103.82 108.945 97.9999 116.125 97.9999Z" fill="#5194FF"/>
</g>
<path fill-rule="evenodd" clip-rule="evenodd" d="M115 97.9999H129C136.18 97.9999 142 103.82 142 111V125C142 132.18 136.18 138 129 138H115C107.82 138 102 132.18 102 125V111C102 103.82 107.82 97.9999 115 97.9999Z" fill="white"/>
<g filter="url(#filter1_d)">
<path fill-rule="evenodd" clip-rule="evenodd" d="M67.125 50.0001H78.875C86.0547 50.0001 91.875 55.8202 91.875 63V77C91.875 84.1797 86.0547 89.9999 78.875 89.9999H67.125C59.9454 89.9999 54.125 84.1797 54.125 77V63C54.125 55.8202 59.9454 50.0001 67.125 50.0001Z" fill="#5194FF"/>
</g>
<path fill-rule="evenodd" clip-rule="evenodd" d="M66 50.0001H80C87.1797 50.0001 93 55.8202 93 63V77C93 84.1797 87.1797 89.9999 80 89.9999H66C58.8203 89.9999 53.0001 84.1797 53.0001 77V63C53.0001 55.8202 58.8203 50.0001 66 50.0001Z" fill="white"/>
<g filter="url(#filter2_d)">
<path fill-rule="evenodd" clip-rule="evenodd" d="M63.4375 146H65.5625C70.7747 146 75.0001 150.225 75.0001 155.437V158.563C75.0001 163.775 70.7747 168 65.5625 168H63.4375C58.2253 168 54 163.775 54 158.563V155.437C54 150.225 58.2253 146 63.4375 146Z" fill="white"/>
</g>
<path fill-rule="evenodd" clip-rule="evenodd" d="M63 146H65C70.5229 146 75 150.477 75 156V158C75 163.523 70.5229 168 65 168H63C57.4772 168 53 163.523 53 158V156C53 150.477 57.4772 146 63 146Z" fill="white"/>
<g filter="url(#filter3_d)">
<path fill-rule="evenodd" clip-rule="evenodd" d="M34.4375 50H36.5626C41.7746 50 46 54.2254 46 59.4376V62.5625C46 67.7747 41.7746 72 36.5626 72H34.4375C29.2253 72 25 67.7747 25 62.5625V59.4376C25 54.2254 29.2253 50 34.4375 50Z" fill="white"/>
</g>
<path fill-rule="evenodd" clip-rule="evenodd" d="M34 50H36C41.5229 50 46 54.4773 46 59.9999V62C46 67.5229 41.5229 72 36 72H34C28.4772 72 24 67.5229 24 62V59.9999C24 54.4773 28.4772 50 34 50Z" fill="white"/>
<g filter="url(#filter4_d)">
<path fill-rule="evenodd" clip-rule="evenodd" d="M160.438 98H162.562C167.775 98 172 102.225 172 107.438V110.562C172 115.775 167.775 120 162.562 120H160.438C155.225 120 151 115.775 151 110.562V107.438C151 102.225 155.225 98 160.438 98Z" fill="white"/>
</g>
<path fill-rule="evenodd" clip-rule="evenodd" d="M160 98H162C167.523 98 172 102.477 172 108V110C172 115.523 167.523 120 162 120H160C154.477 120 150 115.523 150 110V108C150 102.477 154.477 98 160 98Z" fill="white"/>
<path fill-rule="evenodd" clip-rule="evenodd" d="M88 1.99987C90.7614 1.99987 93 4.23861 93 7.00006C93 9.76152 90.7614 12 88 12C85.2386 12 83.0001 9.76152 83.0001 7.00006C83.0001 4.23861 85.2386 1.99987 88 1.99987Z" fill="white"/>
<path fill-rule="evenodd" clip-rule="evenodd" d="M184 97.9999C186.761 97.9999 189 100.239 189 103C189 105.761 186.761 108 184 108C181.239 108 179 105.761 179 103C179 100.239 181.239 97.9999 184 97.9999Z" fill="white"/>
<path fill-rule="evenodd" clip-rule="evenodd" d="M41 80.0001C43.7615 80.0001 46 82.2385 46 85C46 87.7615 43.7615 89.9999 41 89.9999C38.2385 89.9999 36 87.7615 36 85C36 82.2385 38.2385 80.0001 41 80.0001Z" fill="white"/>
<g filter="url(#filter5_d)">
<path fill-rule="evenodd" clip-rule="evenodd" d="M81.4375 20H83.5625C88.7747 20 93 24.2254 93 29.4376V32.5625C93 37.7747 88.7747 42 83.5625 42H81.4375C76.2253 42 72 37.7747 72 32.5625V29.4376C72 24.2254 76.2253 20 81.4375 20Z" fill="white"/>
</g>
<path fill-rule="evenodd" clip-rule="evenodd" d="M81 20H83C88.5229 20 93 24.4772 93 30.0001V31.9999C93 37.5228 88.5229 42 83 42H81C75.4772 42 71 37.5228 71 31.9999V30.0001C71 24.4772 75.4772 20 81 20Z" fill="white"/>
<g filter="url(#filter6_d)">
<path fill-rule="evenodd" clip-rule="evenodd" d="M67.125 97.9999H78.875C86.0547 97.9999 91.875 103.82 91.875 111V125C91.875 132.18 86.0547 138 78.875 138H67.125C59.9454 138 54.125 132.18 54.125 125V111C54.125 103.82 59.9454 97.9999 67.125 97.9999Z" fill="#5194FF"/>
</g>
<path fill-rule="evenodd" clip-rule="evenodd" d="M66 97.9999H80C87.1797 97.9999 93 103.82 93 111V125C93 132.18 87.1797 138 80 138H66C58.8203 138 53.0001 132.18 53.0001 125V111C53.0001 103.82 58.8203 97.9999 66 97.9999Z" fill="white"/>
<defs>
<filter id="filter0_d" x="78.1251" y="87.9999" width="87.75" height="90.0002" filterUnits="userSpaceOnUse" color-interpolation-filters="sRGB">
<feFlood flood-opacity="0" result="BackgroundImageFix"/>
<feColorMatrix in="SourceAlpha" type="matrix" values="0 0 0 0 0 0 0 0 0 0 0 0 0 0 0 0 0 0 127 0"/>
<feOffset dy="15"/>
<feGaussianBlur stdDeviation="12.5"/>
<feColorMatrix type="matrix" values="0 0 0 0 0.278431 0 0 0 0 0.317647 0 0 0 0 0.4 0 0 0 0.15 0"/>
<feBlend mode="normal" in2="BackgroundImageFix" result="effect1_dropShadow"/>
<feBlend mode="normal" in="SourceGraphic" in2="effect1_dropShadow" result="shape"/>
</filter>
<filter id="filter1_d" x="29.125" y="40.0001" width="87.75" height="89.9998" filterUnits="userSpaceOnUse" color-interpolation-filters="sRGB">
<feFlood flood-opacity="0" result="BackgroundImageFix"/>
<feColorMatrix in="SourceAlpha" type="matrix" values="0 0 0 0 0 0 0 0 0 0 0 0 0 0 0 0 0 0 127 0"/>
<feOffset dy="15"/>
<feGaussianBlur stdDeviation="12.5"/>
<feColorMatrix type="matrix" values="0 0 0 0 0.278431 0 0 0 0 0.317647 0 0 0 0 0.4 0 0 0 0.15 0"/>
<feBlend mode="normal" in2="BackgroundImageFix" result="effect1_dropShadow"/>
<feBlend mode="normal" in="SourceGraphic" in2="effect1_dropShadow" result="shape"/>
</filter>
<filter id="filter2_d" x="29.0001" y="136" width="71" height="72" filterUnits="userSpaceOnUse" color-interpolation-filters="sRGB">
<feFlood flood-opacity="0" result="BackgroundImageFix"/>
<feColorMatrix in="SourceAlpha" type="matrix" values="0 0 0 0 0 0 0 0 0 0 0 0 0 0 0 0 0 0 127 0"/>
<feOffset dy="15"/>
<feGaussianBlur stdDeviation="12.5"/>
<feColorMatrix type="matrix" values="0 0 0 0 0.278431 0 0 0 0 0.317647 0 0 0 0 0.4 0 0 0 0.15 0"/>
<feBlend mode="normal" in2="BackgroundImageFix" result="effect1_dropShadow"/>
<feBlend mode="normal" in="SourceGraphic" in2="effect1_dropShadow" result="shape"/>
</filter>
<filter id="filter3_d" x="0" y="40" width="71" height="72" filterUnits="userSpaceOnUse" color-interpolation-filters="sRGB">
<feFlood flood-opacity="0" result="BackgroundImageFix"/>
<feColorMatrix in="SourceAlpha" type="matrix" values="0 0 0 0 0 0 0 0 0 0 0 0 0 0 0 0 0 0 127 0"/>
<feOffset dy="15"/>
<feGaussianBlur stdDeviation="12.5"/>
<feColorMatrix type="matrix" values="0 0 0 0 0.278431 0 0 0 0 0.317647 0 0 0 0 0.4 0 0 0 0.15 0"/>
<feBlend mode="normal" in2="BackgroundImageFix" result="effect1_dropShadow"/>
<feBlend mode="normal" in="SourceGraphic" in2="effect1_dropShadow" result="shape"/>
</filter>
<filter id="filter4_d" x="126" y="88" width="70.9999" height="72" filterUnits="userSpaceOnUse" color-interpolation-filters="sRGB">
<feFlood flood-opacity="0" result="BackgroundImageFix"/>
<feColorMatrix in="SourceAlpha" type="matrix" values="0 0 0 0 0 0 0 0 0 0 0 0 0 0 0 0 0 0 127 0"/>
<feOffset dy="15"/>
<feGaussianBlur stdDeviation="12.5"/>
<feColorMatrix type="matrix" values="0 0 0 0 0.278431 0 0 0 0 0.317647 0 0 0 0 0.4 0 0 0 0.15 0"/>
<feBlend mode="normal" in2="BackgroundImageFix" result="effect1_dropShadow"/>
<feBlend mode="normal" in="SourceGraphic" in2="effect1_dropShadow" result="shape"/>
</filter>
<filter id="filter5_d" x="47" y="5" width="71" height="72" filterUnits="userSpaceOnUse" color-interpolation-filters="sRGB">
<feFlood flood-opacity="0" result="BackgroundImageFix"/>
<feColorMatrix in="SourceAlpha" type="matrix" values="0 0 0 0 0 0 0 0 0 0 0 0 0 0 0 0 0 0 127 0"/>
<feOffset dy="10"/>
<feGaussianBlur stdDeviation="12.5"/>
<feColorMatrix type="matrix" values="0 0 0 0 0.278431 0 0 0 0 0.317647 0 0 0 0 0.4 0 0 0 0.15 0"/>
<feBlend mode="normal" in2="BackgroundImageFix" result="effect1_dropShadow"/>
<feBlend mode="normal" in="SourceGraphic" in2="effect1_dropShadow" result="shape"/>
</filter>
<filter id="filter6_d" x="29.125" y="87.9999" width="87.75" height="90.0002" filterUnits="userSpaceOnUse" color-interpolation-filters="sRGB">
<feFlood flood-opacity="0" result="BackgroundImageFix"/>
<feColorMatrix in="SourceAlpha" type="matrix" values="0 0 0 0 0 0 0 0 0 0 0 0 0 0 0 0 0 0 127 0"/>
<feOffset dy="15"/>
<feGaussianBlur stdDeviation="12.5"/>
<feColorMatrix type="matrix" values="0 0 0 0 0.278431 0 0 0 0 0.317647 0 0 0 0 0.4 0 0 0 0.15 0"/>
<feBlend mode="normal" in2="BackgroundImageFix" result="effect1_dropShadow"/>
<feBlend mode="normal" in="SourceGraphic" in2="effect1_dropShadow" result="shape"/>
</filter>
</defs>
</svg>
