<svg width="121" height="105" viewBox="0 0 121 105" fill="none" xmlns="http://www.w3.org/2000/svg">
<g filter="url(#filter0_d)">
<path fill-rule="evenodd" clip-rule="evenodd" d="M71.125 24.9999H82.875C90.0547 24.9999 95.875 30.8204 95.875 37.9999V51.9999C95.875 59.1797 90.0547 65.0001 82.875 65.0001H71.125C63.9453 65.0001 58.125 59.1797 58.125 51.9999V37.9999C58.125 30.8204 63.9453 24.9999 71.125 24.9999Z" fill="#5194FF"/>
</g>
<path fill-rule="evenodd" clip-rule="evenodd" d="M70.0001 24.9999H84C91.1797 24.9999 97 30.8204 97 37.9999V51.9999C97 59.1797 91.1797 65.0001 84 65.0001H70.0001C62.8203 65.0001 57 59.1797 57 51.9999V37.9999C57 30.8204 62.8203 24.9999 70.0001 24.9999Z" fill="white"/>
<g filter="url(#filter1_d)">
<path fill-rule="evenodd" clip-rule="evenodd" d="M34.4375 43.0001H36.5625C41.7747 43.0001 46 47.2255 46 52.4374V55.5625C46 60.7747 41.7747 65.0001 36.5625 65.0001H34.4375C29.2253 65.0001 25.0001 60.7747 25.0001 55.5625V52.4374C25.0001 47.2255 29.2253 43.0001 34.4375 43.0001Z" fill="white"/>
</g>
<path fill-rule="evenodd" clip-rule="evenodd" d="M34 43.0001H36C41.5228 43.0001 46 47.4773 46 52.9999V55C46 60.5229 41.5228 65.0001 36 65.0001H34C28.4771 65.0001 24 60.5229 24 55V52.9999C24 47.4773 28.4771 43.0001 34 43.0001Z" fill="white"/>
<path fill-rule="evenodd" clip-rule="evenodd" d="M91 1.99989C93.7614 1.99989 96 4.23864 96 7.0001C96 9.76156 93.7614 12 91 12C88.2386 12 86 9.76156 86 7.0001C86 4.23864 88.2386 1.99989 91 1.99989Z" fill="white"/>
<defs>
<filter id="filter0_d" x="33.125" y="14.9999" width="87.7501" height="90.0002" filterUnits="userSpaceOnUse" color-interpolation-filters="sRGB">
<feFlood flood-opacity="0" result="BackgroundImageFix"/>
<feColorMatrix in="SourceAlpha" type="matrix" values="0 0 0 0 0 0 0 0 0 0 0 0 0 0 0 0 0 0 127 0"/>
<feOffset dy="15"/>
<feGaussianBlur stdDeviation="12.5"/>
<feColorMatrix type="matrix" values="0 0 0 0 0.278431 0 0 0 0 0.317647 0 0 0 0 0.4 0 0 0 0.15 0"/>
<feBlend mode="normal" in2="BackgroundImageFix" result="effect1_dropShadow"/>
<feBlend mode="normal" in="SourceGraphic" in2="effect1_dropShadow" result="shape"/>
</filter>
<filter id="filter1_d" x="0.00012207" y="33.0001" width="70.9999" height="72" filterUnits="userSpaceOnUse" color-interpolation-filters="sRGB">
<feFlood flood-opacity="0" result="BackgroundImageFix"/>
<feColorMatrix in="SourceAlpha" type="matrix" values="0 0 0 0 0 0 0 0 0 0 0 0 0 0 0 0 0 0 127 0"/>
<feOffset dy="15"/>
<feGaussianBlur stdDeviation="12.5"/>
<feColorMatrix type="matrix" values="0 0 0 0 0.278431 0 0 0 0 0.317647 0 0 0 0 0.4 0 0 0 0.15 0"/>
<feBlend mode="normal" in2="BackgroundImageFix" result="effect1_dropShadow"/>
<feBlend mode="normal" in="SourceGraphic" in2="effect1_dropShadow" result="shape"/>
</filter>
</defs>
</svg>
