<svg height="512pt" viewBox="0 -83 512.00028 512" width="512pt" xmlns="http://www.w3.org/2000/svg"><path d="m511.8125 177.257812c-.921875-4.039062-4.941406-6.5625-8.980469-5.644531-29.070312 6.625-61.875 11.960938-97.117187 15.898438l-19.703125-59.101563c-1.308594-3.929687-5.558594-6.054687-9.484375-4.746094-3.929688 1.3125-6.054688 5.558594-4.746094 9.488282l3.097656 9.296875c-12.8125 1.09375-25.925781 2.027343-39.125 2.757812-4.136718.230469-7.304687 3.769531-7.074218 7.902344.21875 3.996094 3.527343 7.085937 7.480468 7.085937.140625 0 .28125-.003906.421875-.011718 14.589844-.808594 29.074219-1.859375 43.175781-3.105469l10.679688 32.039063c-42.378906 4.167968-87.890625 6.355468-134.4375 6.355468-46.550781 0-92.0625-2.1875-134.4375-6.355468l10.675781-32.035157c14.105469 1.246094 28.597657 2.296875 43.183594 3.101563.140625.007812.28125.011718.421875.011718 3.953125 0 7.261719-3.089843 7.480469-7.085937.230469-4.132813-2.9375-7.671875-7.074219-7.902344-13.199219-.730469-26.3125-1.664062-39.132812-2.757812l36.882812-110.652344c3.910156-11.726563 15.996094-18.746094 28.121094-16.320313l41.402344 8.28125c8.277343 1.65625 16.671874 1.65625 24.949218 0l41.402344-8.28125c12.125-2.421874 24.210938 4.59375 28.121094 16.320313l23.117187 69.355469c1.3125 3.929687 5.558594 6.054687 9.488281 4.746094 3.929688-1.3125 6.050782-5.558594 4.742188-9.488282l-23.117188-69.355468c-6.296874-18.890626-25.773437-30.191407-45.292968-26.285157l-41.398438 8.28125c-6.328125 1.265625-12.742187 1.265625-19.070312 0l-41.398438-8.28125c-19.527344-3.902343-38.996094 7.394531-45.292968 26.285157l-53.488282 160.457031c-35.242187-3.933594-68.046875-9.273438-97.117187-15.898438-4.035157-.917969-8.058594 1.609375-8.980469 5.644531-.917969 4.039063 1.609375 8.058594 5.648438 8.980469 68.585937 15.628907 157.433593 24.234375 250.164062 24.234375s181.574219-8.605468 250.164062-24.234375c4.039063-.921875 6.566407-4.941406 5.648438-8.980469zm0 0"/><path d="m328.144531 235.554688c-22.453125 0-41.824219 13.382812-50.589843 32.589843-5.644532-5.292969-13.226563-8.542969-21.554688-8.542969s-15.90625 3.25-21.550781 8.542969c-8.769531-19.203125-28.140625-32.589843-50.59375-32.589843-30.65625 0-55.597657 24.9375-55.597657 55.597656 0 30.65625 24.941407 55.59375 55.597657 55.59375s55.597656-24.9375 55.597656-55.59375c0-9.125 7.421875-16.550782 16.546875-16.550782s16.546875 7.425782 16.546875 16.550782c0 30.65625 24.941406 55.59375 55.597656 55.59375s55.597657-24.9375 55.597657-55.59375c0-30.660156-24.941407-55.597656-55.597657-55.597656zm-144.289062 96.191406c-22.382813 0-40.597657-18.210938-40.597657-40.59375 0-22.386719 18.210938-40.597656 40.597657-40.597656s40.597656 18.210937 40.597656 40.597656c0 22.382812-18.210937 40.59375-40.597656 40.59375zm144.289062 0c-22.382812 0-40.597656-18.210938-40.597656-40.59375 0-22.386719 18.210937-40.597656 40.597656-40.597656s40.597657 18.210937 40.597657 40.597656c0 22.382812-18.210938 40.59375-40.597657 40.59375zm0 0"/><path d="m256 51.183594c-35.074219 0-63.613281 28.539062-63.613281 63.613281s28.539062 63.613281 63.613281 63.613281c35.078125 0 63.613281-28.539062 63.613281-63.613281s-28.535156-63.613281-63.613281-63.613281zm48.03125 56.113281h-16.691406c-.703125-12.984375-3.21875-25.082031-7.269532-34.707031 12.578126 7.199218 21.652344 19.84375 23.960938 34.707031zm-48.03125 56.113281c-5.152344 0-14.769531-14.449218-16.328125-41.113281h32.65625c-1.558594 26.664063-11.175781 41.113281-16.328125 41.113281zm-16.328125-56.113281c1.558594-26.664063 11.175781-41.113281 16.328125-41.113281s14.769531 14.449218 16.328125 41.113281zm-7.742187-34.707031c-4.050782 9.625-6.566407 21.722656-7.269532 34.707031h-16.691406c2.3125-14.863281 11.382812-27.507813 23.960938-34.707031zm-23.960938 49.707031h16.691406c.703125 12.984375 3.21875 25.082031 7.269532 34.707031-12.578126-7.199218-21.648438-19.84375-23.960938-34.707031zm72.105469 34.707031c4.046875-9.625 6.5625-21.722656 7.265625-34.707031h16.695312c-2.3125 14.863281-11.386718 27.507813-23.960937 34.707031zm0 0"/></svg>