<svg width="69" height="74" viewBox="0 0 69 74" fill="none" xmlns="http://www.w3.org/2000/svg">
<g clip-path="url(#clip0)">
<path d="M18.6875 47.1487C24.2843 42.6271 29.5915 38.3663 29.5915 33.9938C29.5915 31.625 28.5524 29.8521 25.6649 29.8521C22.9036 29.8521 21.4859 31.774 21.3671 34.4631H18.7766C18.9918 29.8894 21.8125 27.5504 25.6723 27.5504C29.6732 27.5504 32.2712 29.9117 32.2712 33.8746C32.2712 39.2006 26.5556 43.7222 22.7552 46.8209H32.8576V49.0556H18.6875V47.1487Z" fill="#D25332"/>
<path d="M46.2036 44.5489H35.3218V42.5079L45.6469 28.1388H48.8609V42.2099H51.83V44.5489H48.8609V49.3088H46.211V44.5489H46.2036ZM46.3223 42.2099V30.9471L38.3948 42.2099H46.3223Z" fill="#D25332"/>
<path d="M25.672 27.5503C29.6729 27.5503 32.2709 29.9117 32.2709 33.8745C32.2709 39.1931 26.5553 43.7221 22.7549 46.8208H32.8573V49.0555H18.6872V47.1486C24.284 42.6271 29.5912 38.3663 29.5912 33.9937C29.5912 31.6324 28.5521 29.8521 25.6646 29.8521C22.9033 29.8521 21.4856 31.7739 21.3668 34.4704H18.7763C18.9915 29.8893 21.8122 27.5503 25.672 27.5503ZM25.672 26.0605C20.7953 26.0605 17.507 29.3381 17.3214 34.4109C17.3124 34.6121 17.3441 34.813 17.4146 35.0016C17.4852 35.1901 17.5931 35.3624 17.7319 35.5079C17.8706 35.6534 18.0374 35.7692 18.222 35.8482C18.4066 35.9273 18.6052 35.9679 18.806 35.9677H21.3668C21.7505 35.968 22.1193 35.8192 22.3961 35.5526C22.6729 35.286 22.836 34.9222 22.8514 34.5375C22.9479 32.422 23.8906 31.3791 25.672 31.3791C27.1566 31.3791 28.1067 31.8261 28.1067 34.0235C28.1067 37.6586 22.9107 41.8598 17.8633 45.9419L17.7593 46.0313C17.5857 46.1707 17.4456 46.3476 17.3492 46.5487C17.2529 46.7498 17.2028 46.9701 17.2026 47.1933V49.1151C17.2026 49.5103 17.359 49.8892 17.6375 50.1686C17.9159 50.448 18.2935 50.6049 18.6872 50.6049H32.8573C33.251 50.6049 33.6286 50.448 33.907 50.1686C34.1854 49.8892 34.3418 49.5103 34.3418 49.1151V46.8804C34.3418 46.4853 34.1854 46.1064 33.907 45.827C33.6286 45.5476 33.251 45.3906 32.8573 45.3906H26.83C30.2148 42.4111 33.7257 38.4854 33.7257 33.9341C33.7257 29.1817 30.5562 26.1127 25.6423 26.1127L25.672 26.0605Z" fill="#636363"/>
<path d="M48.8536 28.1388V42.21H51.8227V44.549H48.8536V49.3088H46.2037V44.549H35.3219V42.5079L45.647 28.1388H48.8536ZM38.4024 42.21H46.3225V30.9471L38.4024 42.21ZM48.8536 26.6416H45.647C45.4102 26.6415 45.1768 26.6983 44.9664 26.8071C44.7559 26.916 44.5744 27.0737 44.4371 27.2673L34.0972 41.6289C33.9206 41.8873 33.8297 42.1948 33.8374 42.5079V44.549C33.8374 44.9441 33.9938 45.323 34.2722 45.6024C34.5506 45.8818 34.9282 46.0387 35.3219 46.0387H44.7191V49.3088C44.7191 49.704 44.8755 50.0829 45.154 50.3623C45.4324 50.6417 45.81 50.7986 46.2037 50.7986H48.8536C49.2474 50.7986 49.6249 50.6417 49.9034 50.3623C50.1818 50.0829 50.3382 49.704 50.3382 49.3088V46.0387H51.8227C52.2165 46.0387 52.5941 45.8818 52.8725 45.6024C53.1509 45.323 53.3073 44.9441 53.3073 44.549V42.21C53.3073 41.8149 53.1509 41.4359 52.8725 41.1565C52.5941 40.8771 52.2165 40.7202 51.8227 40.7202H50.3382V28.1388C50.3382 27.7437 50.1818 27.3648 49.9034 27.0854C49.6249 26.806 49.2474 26.6491 48.8536 26.6491V26.6416ZM41.2601 40.7202L44.8231 35.6549V40.7202H41.2601Z" fill="#636363"/>
<path d="M44.9713 14.2465C44.4807 14.2084 44.0251 13.9771 43.7038 13.6031C43.3826 13.2291 43.2218 12.7427 43.2566 12.2502L43.7243 5.85151C43.7418 5.60696 43.8072 5.36827 43.9166 5.14907C44.0261 4.92987 44.1775 4.73445 44.3623 4.57398C44.547 4.41351 44.7614 4.29111 44.9932 4.2138C45.2251 4.13648 45.4699 4.10574 45.7136 4.12335C45.9573 4.14096 46.1951 4.20656 46.4135 4.31642C46.632 4.42627 46.8267 4.57822 46.9866 4.7636C47.1465 4.94898 47.2685 5.16414 47.3455 5.39682C47.4226 5.6295 47.4532 5.87512 47.4356 6.11968L46.9754 12.5184C46.9576 12.7641 46.8915 13.004 46.781 13.224C46.6705 13.4441 46.5177 13.6401 46.3315 13.8007C46.1452 13.9613 45.9291 14.0833 45.6957 14.1599C45.4623 14.2364 45.2161 14.2658 44.9713 14.2465Z" fill="#F2785F"/>
<path d="M54.1903 19.2448C53.9368 18.8199 53.8617 18.3115 53.9814 17.8311C54.1011 17.3507 54.4058 16.9376 54.8286 16.6824L60.3215 13.3899C60.7447 13.137 61.2508 13.0632 61.7282 13.1848C62.2057 13.3063 62.6155 13.6132 62.8675 14.038C63.1195 14.4627 63.193 14.9705 63.0719 15.4497C62.9508 15.9288 62.645 16.3401 62.2217 16.593L56.7363 19.8854C56.5272 20.0112 56.2955 20.0943 56.0544 20.1302C55.8133 20.1661 55.5675 20.1539 55.331 20.0944C55.0946 20.0349 54.8722 19.9293 54.6764 19.7835C54.4807 19.6377 54.3155 19.4547 54.1903 19.2448Z" fill="#F2785F"/>
<path d="M57.9387 30.7237C57.9348 30.4785 57.9792 30.2349 58.0693 30.007C58.1594 29.7791 58.2934 29.5713 58.4638 29.3955C58.6341 29.2197 58.8374 29.0794 59.0619 28.9826C59.2865 28.8859 59.5278 28.8345 59.7721 28.8316L66.1631 28.7497C66.6553 28.7428 67.13 28.9323 67.4829 29.2767C67.8358 29.621 68.0379 30.092 68.0448 30.5859C68.0517 31.0798 67.8628 31.5562 67.5197 31.9103C67.1765 32.2644 66.7073 32.4673 66.2151 32.4742L59.8167 32.5636C59.3251 32.5676 58.8518 32.3764 58.5001 32.0318C58.1483 31.6871 57.9465 31.217 57.9387 30.7237Z" fill="#F2785F"/>
<path d="M46.1963 14.6413C45.805 14.8345 45.3693 14.9194 44.9344 14.8871C44.275 14.8376 43.6621 14.5273 43.2306 14.0244C42.7991 13.5216 42.5843 12.8673 42.6333 12.2055L43.0936 5.80682C43.1573 5.15701 43.4715 4.5579 43.9692 4.13732C44.4669 3.71674 45.1086 3.508 45.7576 3.55562C46.4065 3.60325 47.0112 3.90347 47.4426 4.39224C47.874 4.88101 48.098 5.51963 48.0668 6.17182L47.5992 12.5705C47.575 12.8989 47.4865 13.2192 47.3388 13.5132C47.191 13.8072 46.9869 14.0691 46.7381 14.2838C46.5748 14.4274 46.3924 14.5477 46.1963 14.6413ZM45.0458 4.88315C44.9522 4.93579 44.8629 4.99555 44.7785 5.06193C44.6573 5.16776 44.5582 5.29663 44.4868 5.44109C44.4155 5.58556 44.3734 5.74277 44.3629 5.90366L43.8952 12.3023C43.8831 12.4629 43.9027 12.6242 43.9529 12.7771C44.0031 12.93 44.0829 13.0714 44.1878 13.1932C44.2926 13.3151 44.4204 13.4149 44.5638 13.487C44.7073 13.5591 44.8635 13.602 45.0235 13.6134C45.3467 13.6363 45.6662 13.5321 45.9142 13.3228C46.0354 13.217 46.1346 13.0881 46.2059 12.9437C46.2772 12.7992 46.3194 12.642 46.3299 12.4811L46.7975 6.05264C46.8107 5.89192 46.7918 5.73018 46.742 5.57687C46.6921 5.42355 46.6124 5.28173 46.5074 5.15969C46.4023 5.03764 46.2741 4.93782 46.1302 4.86604C45.9863 4.79426 45.8296 4.75196 45.6693 4.74162C45.4552 4.72228 45.2399 4.76086 45.0458 4.85335V4.88315Z" fill="#636363"/>
<path d="M55.831 20.7868C55.6082 20.7885 55.3861 20.7609 55.1704 20.7048C54.6923 20.585 54.2605 20.3254 53.9297 19.9589C53.5989 19.5924 53.3841 19.1355 53.3125 18.6462C53.2409 18.157 53.3158 17.6574 53.5277 17.2109C53.7395 16.7645 54.0787 16.3912 54.5023 16.1386L59.9952 12.8461C60.2759 12.6779 60.5869 12.5668 60.9104 12.5191C61.234 12.4715 61.5637 12.4883 61.8807 12.5685C62.1978 12.6488 62.496 12.7909 62.7583 12.9868C63.0207 13.1827 63.242 13.4285 63.4096 13.7102C63.5773 13.992 63.688 14.3041 63.7355 14.6287C63.783 14.9534 63.7662 15.2843 63.6863 15.6024C63.6063 15.9206 63.4647 16.2199 63.2695 16.4832C63.0743 16.7464 62.8293 16.9685 62.5486 17.1368L57.0632 20.4292C56.6915 20.6564 56.2661 20.7799 55.831 20.7868ZM61.2422 13.7624C61.0297 13.7686 60.8225 13.8302 60.641 13.9411L55.1555 17.2261C54.8793 17.3933 54.6799 17.6631 54.6007 17.9769C54.5215 18.2907 54.5688 18.6232 54.7324 18.9022C54.8135 19.0419 54.9216 19.164 55.0504 19.2613C55.1791 19.3586 55.3259 19.4291 55.4822 19.4686C55.6385 19.5082 55.801 19.516 55.9604 19.4917C56.1197 19.4673 56.2725 19.4112 56.41 19.3268L61.8954 16.0343C62.1251 15.8943 62.3025 15.6823 62.4003 15.4311C62.4981 15.1799 62.5108 14.9034 62.4365 14.6442C62.3623 14.385 62.2051 14.1575 61.9893 13.9968C61.7734 13.8361 61.5109 13.7511 61.2422 13.7549V13.7624Z" fill="#636363"/>
<path d="M66.2378 33.1073L59.8171 33.1967C59.324 33.2039 58.8397 33.0642 58.4256 32.7953C58.0116 32.5264 57.6862 32.1403 57.4908 31.6858C57.2953 31.2314 57.2386 30.729 57.3276 30.2421C57.4167 29.7553 57.6476 29.3059 57.9911 28.9507C58.4665 28.4941 59.0927 28.2289 59.7503 28.2058L66.1413 28.1165C66.8075 28.1201 67.4452 28.3878 67.9154 28.8614C68.2662 29.2061 68.5079 29.6471 68.61 30.1291C68.7121 30.6111 68.6702 31.1127 68.4895 31.5708C68.3087 32.029 67.9973 32.4235 67.5941 32.7047C67.1909 32.986 66.7139 33.1416 66.223 33.152L66.2378 33.1073ZM59.7726 29.4722C59.6125 29.4721 59.454 29.5051 59.3071 29.5692C59.1603 29.6332 59.0281 29.727 58.919 29.8446C58.8057 29.9591 58.7165 30.0952 58.6566 30.2449C58.5967 30.3946 58.5673 30.5549 58.5701 30.7162C58.5767 31.0396 58.71 31.3474 58.9413 31.5728C59.0548 31.6871 59.1904 31.7771 59.3397 31.8373C59.489 31.8975 59.6489 31.9266 59.8097 31.9229L66.2081 31.8335C66.5308 31.8254 66.8385 31.695 67.0692 31.4685C67.2842 31.2439 67.4063 30.9457 67.4106 30.6342C67.4106 30.4731 67.3783 30.3137 67.3159 30.1653C67.2534 30.0169 67.162 29.8825 67.0469 29.7701C66.9315 29.6563 66.7945 29.5666 66.6441 29.5065C66.4937 29.4464 66.3329 29.417 66.171 29.42L59.8171 29.4722H59.7726Z" fill="#636363"/>
<path d="M31.0909 6.00048C22.3785 6.9339 14.3826 11.272 8.83309 18.0763C3.28353 24.8805 0.626536 33.6038 1.43693 42.359C2.08235 49.9564 5.32383 57.0966 10.6127 62.5711C15.9015 68.0456 22.9129 71.5181 30.46 72.4007C35.0163 72.9669 39.6401 72.5829 44.0418 71.2728C48.4434 69.9626 52.5281 67.7546 56.04 64.7869C59.5519 61.8192 62.4154 58.1558 64.4512 54.0261C66.4869 49.8964 67.6511 45.3893 67.8707 40.7872C67.8797 40.586 67.848 40.3851 67.7775 40.1965C67.7069 40.0079 67.599 39.8357 67.4603 39.6902C67.3215 39.5446 67.1548 39.4289 66.9701 39.3498C66.7855 39.2708 66.5869 39.2302 66.3862 39.2304C65.996 39.2416 65.6249 39.4022 65.3488 39.6792C65.0728 39.9562 64.9128 40.3286 64.9016 40.7202C64.6233 46.4778 62.7166 52.0368 59.4048 56.7467C56.093 61.4565 51.513 65.1224 46.2007 67.3152C40.8884 69.5081 35.0637 70.1373 29.4081 69.1292C23.7525 68.1211 18.5 65.5173 14.2652 61.6227C10.0305 57.728 6.98863 52.7035 5.49568 47.1372C4.00272 41.5709 4.12041 35.6931 5.83497 30.1914C7.54953 24.6898 10.79 19.792 15.1773 16.0712C19.5645 12.3504 24.917 9.96052 30.6084 9.1812L28.6414 11.1701C28.354 11.4585 28.1925 11.8497 28.1925 12.2576C28.1925 12.6655 28.354 13.0567 28.6414 13.3452C28.9288 13.6336 29.3186 13.7957 29.7251 13.7957C30.1316 13.7957 30.5214 13.6336 30.8088 13.3452L35.7004 8.4363C35.9851 8.14641 36.1447 7.75575 36.1447 7.34875C36.1447 6.94175 35.9851 6.55109 35.7004 6.2612L30.794 1.35232C30.5023 1.08795 30.1204 0.946419 29.7276 0.957107C29.3347 0.967795 28.961 1.12988 28.6841 1.40972C28.4071 1.68956 28.2482 2.06567 28.2402 2.45999C28.2323 2.85432 28.3759 3.23657 28.6414 3.52742L31.0909 6.00048Z" fill="#5BACDD"/>
<path d="M34.6314 73.2797C33.2124 73.28 31.7946 73.1955 30.3856 73.0264C22.6963 72.1283 15.5528 68.5907 10.1648 63.0126C4.77688 57.4346 1.47579 50.1592 0.820688 42.4185C0.0502703 33.7261 2.61821 25.0666 7.99931 18.2113C13.3804 11.3559 21.1681 6.82267 29.7695 5.53866L28.1884 3.96692C27.9805 3.76822 27.8144 3.52979 27.6997 3.26567C27.5849 3.00155 27.5241 2.71707 27.5206 2.42897C27.5171 2.14088 27.571 1.85499 27.6793 1.58814C27.7875 1.32129 27.9479 1.07887 28.1509 0.875141C28.3539 0.671413 28.5955 0.510497 28.8614 0.401865C29.1273 0.293233 29.4122 0.239079 29.6992 0.242592C29.9863 0.246105 30.2698 0.307213 30.533 0.422319C30.7962 0.537426 31.0338 0.704205 31.2318 0.91284L36.1234 5.82172C36.5268 6.2268 36.7534 6.77606 36.7534 7.34876C36.7534 7.92146 36.5268 8.47072 36.1234 8.8758L31.2318 13.7847C30.8192 14.1722 30.2752 14.3878 29.7101 14.3878C29.145 14.3878 28.601 14.1722 28.1884 13.7847C27.785 13.3796 27.5584 12.8303 27.5584 12.2576C27.5584 11.6849 27.785 11.1357 28.1884 10.7306L28.8045 10.1123C21.5778 11.5342 15.1418 15.6161 10.7607 21.5564C6.37949 27.4967 4.36967 34.8661 5.12589 42.2174C5.86648 49.1217 8.97281 55.5537 13.9143 60.4147C18.8557 65.2758 25.3257 68.2644 32.219 68.8699C36.1739 69.1806 40.1506 68.6928 43.9145 67.4354C47.6784 66.178 51.153 64.1764 54.1331 61.5489C57.1133 58.9214 59.5385 55.7212 61.2657 52.1374C62.9928 48.5535 63.9868 44.6587 64.1889 40.6829C64.212 40.1231 64.4509 39.5941 64.8554 39.2077C65.2598 38.8213 65.798 38.6078 66.3563 38.6121C66.6477 38.6134 66.9358 38.6734 67.2035 38.7886C67.4713 38.9037 67.7133 39.0717 67.9151 39.2825C68.1097 39.4856 68.2608 39.7265 68.3591 39.9904C68.4574 40.2543 68.5008 40.5356 68.4867 40.817C68.2618 45.4963 67.0795 50.079 65.0132 54.2799C62.947 58.4807 60.0412 62.2098 56.4766 65.2348C50.383 70.4435 42.6359 73.2965 34.6314 73.2797ZM66.3192 39.8561C66.0854 39.8599 65.8622 39.9543 65.6961 40.1195C65.5301 40.2847 65.4342 40.508 65.4285 40.7425C65.2239 44.8868 64.1925 48.9477 62.3953 52.6846C60.598 56.4215 58.0716 59.7583 54.9657 62.4973C51.8598 65.2363 48.2375 67.3217 44.3137 68.6301C40.3899 69.9384 36.2442 70.4429 32.1225 70.1139C24.9439 69.479 18.2074 66.3633 13.0631 61.2987C7.91885 56.2341 4.68582 49.5346 3.91598 42.3441C3.09222 34.3441 5.41228 26.3373 10.3823 20.0281C15.3524 13.7188 22.5799 9.60524 30.5266 8.56294C30.6551 8.54848 30.7849 8.57349 30.8989 8.63468C31.0129 8.69586 31.1057 8.79033 31.165 8.90559C31.2286 9.02582 31.2515 9.1636 31.23 9.29802C31.2086 9.43245 31.1441 9.5562 31.0462 9.65049L29.0643 11.6319C28.9795 11.717 28.9122 11.818 28.8663 11.9292C28.8204 12.0404 28.7967 12.1596 28.7967 12.28C28.7967 12.4003 28.8204 12.5195 28.8663 12.6307C28.9122 12.7419 28.9795 12.843 29.0643 12.928C29.2374 13.0964 29.469 13.1906 29.7101 13.1906C29.9512 13.1906 30.1828 13.0964 30.3559 12.928L35.2475 7.98937C35.3321 7.90492 35.3993 7.80452 35.4451 7.69394C35.4909 7.58336 35.5145 7.46479 35.5145 7.34503C35.5145 7.22528 35.4909 7.1067 35.4451 6.99612C35.3993 6.88555 35.3321 6.78515 35.2475 6.7007L30.3559 1.79182C30.2759 1.69163 30.1759 1.60942 30.0622 1.55051C29.9486 1.49161 29.8238 1.45733 29.6961 1.4499C29.5684 1.44247 29.4406 1.46205 29.3209 1.50737C29.2013 1.55269 29.0924 1.62274 29.0014 1.71299C28.9105 1.80323 28.8394 1.91165 28.7929 2.03122C28.7463 2.15078 28.7253 2.27883 28.7313 2.40706C28.7372 2.53529 28.7699 2.66084 28.8273 2.77557C28.8847 2.89029 28.9654 2.99164 29.0643 3.07304L31.5287 5.53866C31.6109 5.62224 31.6683 5.72711 31.6945 5.84155C31.7207 5.956 31.7147 6.07551 31.6771 6.18672C31.6383 6.29748 31.5687 6.39483 31.4767 6.46738C31.3847 6.53994 31.274 6.58469 31.1576 6.59641C22.616 7.54601 14.7853 11.8165 9.34451 18.4921C3.90373 25.1678 1.28608 33.7171 2.05287 42.3068C2.68425 49.7633 5.8645 56.7716 11.0549 62.1446C16.2454 67.5177 23.127 70.9251 30.534 71.7899C35.0152 72.3632 39.5662 71.9922 43.8965 70.7007C48.2267 69.4091 52.2408 67.2253 55.6824 64.2888C59.1114 61.371 61.9066 57.7775 63.8947 53.7309C65.8827 49.6844 67.0213 45.2712 67.2396 40.7649C67.2439 40.6499 67.2251 40.5353 67.1843 40.4278C67.1435 40.3203 67.0815 40.2221 67.0021 40.1392C66.9111 40.0468 66.8023 39.974 66.6824 39.9253C66.5624 39.8767 66.4337 39.8531 66.3044 39.8561H66.3192Z" fill="#636363"/>
</g>
<defs>
<clipPath id="clip0">
<rect width="68" height="73" fill="white" transform="translate(0.679688 0.279663)"/>
</clipPath>
</defs>
</svg>
