<svg width="74" height="74" viewBox="0 0 74 74" fill="none" xmlns="http://www.w3.org/2000/svg">
<g clip-path="url(#clip0)">
<path d="M61.4626 12.3076H14.6606V60.5278H61.4626V12.3076Z" fill="#F9DD9D"/>
<path d="M61.4474 61.1529H14.6604C14.4944 61.1529 14.3353 61.0871 14.2179 60.9699C14.1006 60.8526 14.0347 60.6937 14.0347 60.5279V12.3077C14.0366 12.1425 14.1031 11.9846 14.2201 11.8678C14.337 11.751 14.495 11.6845 14.6604 11.6826H61.4474C61.6121 11.6846 61.7693 11.7513 61.8851 11.8683C62.0008 11.9853 62.0657 12.1432 62.0657 12.3077V60.5279C62.0667 60.6096 62.0514 60.6907 62.0208 60.7665C61.9902 60.8423 61.9448 60.9113 61.8873 60.9694C61.8298 61.0276 61.7613 61.0737 61.6858 61.1052C61.6103 61.1367 61.5292 61.153 61.4474 61.1529ZM15.2637 59.9102H60.8366V12.9328H15.2637V59.9102Z" fill="#636363"/>
<path d="M52.0173 12.3076H5.21533V60.5278H52.0173V12.3076Z" fill="#F9DD9D"/>
<path d="M7.71806 14.8005H52.0171V12.3076H5.22266V60.5278H7.71806V14.8005Z" fill="#FFEECF"/>
<path d="M52.0169 61.153H5.22244C5.13999 61.154 5.05818 61.1385 4.98181 61.1074C4.90544 61.0764 4.83607 61.0303 4.77777 60.9721C4.71946 60.9139 4.67341 60.8445 4.64232 60.7683C4.61123 60.692 4.59573 60.6102 4.59673 60.5279V12.3077C4.59673 12.1419 4.66265 11.9829 4.77999 11.8657C4.89734 11.7485 5.05649 11.6826 5.22244 11.6826H52.0169C52.1823 11.6845 52.3403 11.751 52.4572 11.8678C52.5742 11.9846 52.6407 12.1425 52.6426 12.3077V60.5279C52.6426 60.6937 52.5767 60.8526 52.4594 60.9699C52.342 61.0871 52.1829 61.153 52.0169 61.153ZM5.83326 59.9102H51.3912V12.9328H5.84071L5.83326 59.9102Z" fill="#636363"/>
<path d="M34.7059 27.7634L32.6724 29.3261L30.6388 27.7634L28.6127 29.3261L26.5865 27.7634L24.553 29.3261L22.5269 27.7634V12.3076H34.7059V27.7634Z" fill="#D25332"/>
<path d="M32.672 29.9512C32.5337 29.9514 32.3996 29.9041 32.2921 29.8173L30.6384 28.5448L28.9922 29.8173C28.8849 29.8982 28.7541 29.9419 28.6197 29.9419C28.4853 29.9419 28.3546 29.8982 28.2473 29.8173L26.6085 28.5522L24.9474 29.8173C24.8401 29.8982 24.7093 29.9419 24.5749 29.9419C24.4405 29.9419 24.3098 29.8982 24.2025 29.8173L22.1466 28.2546C22.0731 28.1953 22.0136 28.1206 21.9723 28.0357C21.9311 27.9508 21.9092 27.8578 21.9082 27.7635V12.3077C21.9101 12.1425 21.9767 11.9846 22.0936 11.8678C22.2105 11.751 22.3686 11.6845 22.5339 11.6826H34.7055C34.8715 11.6826 35.0307 11.7485 35.148 11.8657C35.2653 11.9829 35.3313 12.1419 35.3313 12.3077V27.7635C35.3313 27.858 35.3099 27.9513 35.2686 28.0364C35.2273 28.1215 35.1672 28.1961 35.0929 28.2546L33.0593 29.8247C32.946 29.9051 32.8109 29.9493 32.672 29.9512ZM30.6384 27.1384C30.7752 27.1394 30.9082 27.1837 31.0183 27.2649L32.672 28.5374L34.0798 27.4509V12.9328H23.1522V27.4584L24.5526 28.5374L26.1988 27.2723C26.3061 27.1914 26.4369 27.1477 26.5713 27.1477C26.7057 27.1477 26.8364 27.1914 26.9437 27.2723L28.5825 28.5374L30.2362 27.2723C30.3437 27.1855 30.4778 27.1382 30.6161 27.1384H30.6384Z" fill="#636363"/>
<path d="M22.3105 47.9221H11.8745V54.6045H22.3105V47.9221Z" fill="#5BACDD"/>
<path d="M22.318 55.2296H11.8894C11.7235 55.2296 11.5643 55.1637 11.447 55.0465C11.3296 54.9292 11.2637 54.7703 11.2637 54.6045V47.9072C11.2627 47.8249 11.2782 47.7431 11.3093 47.6668C11.3404 47.5906 11.3865 47.5213 11.4448 47.463C11.5031 47.4048 11.5724 47.3588 11.6488 47.3277C11.7252 47.2966 11.807 47.2812 11.8894 47.2821H22.318C22.4002 47.2821 22.4815 47.2983 22.5575 47.3297C22.6334 47.3611 22.7023 47.4072 22.7605 47.4652C22.8186 47.5233 22.8646 47.5922 22.8961 47.668C22.9275 47.7439 22.9437 47.8251 22.9437 47.9072V54.6045C22.9418 54.7697 22.8752 54.9275 22.7583 55.0443C22.6414 55.1611 22.4834 55.2276 22.318 55.2296ZM12.5002 53.9794H21.6923V48.5397H12.5002V53.9794Z" fill="#636363"/>
<path d="M8.09797 8.20747L4.77573 4.88861C4.66145 4.76948 4.59766 4.61085 4.59766 4.44585C4.59766 4.28085 4.66145 4.12222 4.77573 4.00309L8.09797 0.721436L8.9844 1.59952L6.10164 4.44213L8.9844 7.32195L8.09797 8.20747Z" fill="#636363"/>
<path d="M58.5798 8.20747L57.7231 7.32195L60.5761 4.44213L57.7231 1.56231L58.5798 0.721436L61.902 4.04029C61.9601 4.09773 62.0063 4.16611 62.0377 4.24147C62.0692 4.31683 62.0854 4.39768 62.0854 4.47934C62.0854 4.561 62.0692 4.64184 62.0377 4.71721C62.0063 4.79257 61.9601 4.86094 61.902 4.91838L58.5798 8.20747Z" fill="#636363"/>
<path d="M61.4551 3.82446H5.21533V5.07462H61.4551V3.82446Z" fill="#636363"/>
<path d="M72.3007 17.0925L69.418 14.1903L66.5352 17.0925L65.6562 16.207L68.9785 12.8881C69.0974 12.7761 69.2546 12.7137 69.418 12.7137C69.5814 12.7137 69.7386 12.7761 69.8575 12.8881L73.1797 16.207L72.3007 17.0925Z" fill="#636363"/>
<path d="M69.418 62.1575C69.336 62.1571 69.255 62.1405 69.1795 62.1086C69.1041 62.0766 69.0358 62.03 68.9785 61.9715L65.6562 58.6526L66.5352 57.7745L69.418 60.6544L72.3007 57.7745L73.1797 58.6526L69.8575 61.9715C69.8005 62.0304 69.7322 62.0772 69.6567 62.1092C69.5812 62.1411 69.5 62.1576 69.418 62.1575Z" fill="#636363"/>
<path d="M70.0439 13.3123H68.7925V61.5324H70.0439V13.3123Z" fill="#636363"/>
<path d="M35.7483 73.0592H0.805176V38.1516L35.7483 73.0592Z" fill="#F2785F"/>
<path d="M35.756 73.6842H0.805402C0.639452 73.6842 0.480299 73.6183 0.362955 73.5011C0.245611 73.3839 0.179688 73.2249 0.179688 73.0591V38.1516C0.182813 38.0289 0.221627 37.9097 0.291395 37.8086C0.361163 37.7075 0.458868 37.6289 0.572593 37.5824C0.686317 37.5358 0.811144 37.5234 0.931846 37.5465C1.05255 37.5696 1.16391 37.6273 1.25234 37.7125L36.1955 72.6201C36.2818 72.7075 36.3405 72.8183 36.3642 72.9388C36.3878 73.0593 36.3754 73.1841 36.3286 73.2976C36.2817 73.4111 36.2024 73.5083 36.1006 73.577C35.9987 73.6458 35.8789 73.6831 35.756 73.6842ZM1.43112 72.4415H34.2439L1.46836 39.6547L1.43112 72.4415Z" fill="#636363"/>
<path d="M7.06982 53.2056V66.8307H20.6866L7.06982 53.2056Z" fill="#F9DD9D"/>
<path d="M20.6868 67.4557H7.07006C6.90471 67.4538 6.74667 67.3873 6.62975 67.2705C6.51282 67.1537 6.44627 66.9958 6.44434 66.8306V53.2055C6.44385 53.0812 6.48043 52.9596 6.54942 52.8563C6.61842 52.7529 6.71669 52.6724 6.83169 52.625C6.94552 52.5794 7.07018 52.5677 7.19052 52.5915C7.31086 52.6153 7.42169 52.6735 7.50955 52.759L21.1263 66.3916C21.2136 66.4783 21.273 66.5891 21.2969 66.7097C21.3207 66.8304 21.308 66.9554 21.2604 67.0688C21.2135 67.1825 21.134 67.2799 21.032 67.3487C20.93 67.4175 20.8099 67.4547 20.6868 67.4557ZM7.67342 66.2056H19.1821L7.67342 54.7086V66.2056Z" fill="#636363"/>
<path d="M3.39742 43.5392H0.805176V44.7893H3.39742V43.5392Z" fill="#636363"/>
<path d="M3.39742 47.1035H0.805176V48.3537H3.39742V47.1035Z" fill="#636363"/>
<path d="M3.39742 50.6754H0.805176V51.9256H3.39742V50.6754Z" fill="#636363"/>
<path d="M3.39742 54.2473H0.805176V55.4975H3.39742V54.2473Z" fill="#636363"/>
<path d="M3.39742 57.8192H0.805176V59.0694H3.39742V57.8192Z" fill="#636363"/>
<path d="M3.39742 61.3835H0.805176V62.6337H3.39742V61.3835Z" fill="#636363"/>
<path d="M3.39742 64.9554H0.805176V66.2056H3.39742V64.9554Z" fill="#636363"/>
<path d="M3.39742 68.5273H0.805176V69.7775H3.39742V68.5273Z" fill="#636363"/>
<path d="M5.27487 70.4695H4.02344V73.0591H5.27487V70.4695Z" fill="#636363"/>
<path d="M8.84274 70.4695H7.59131V73.0591H8.84274V70.4695Z" fill="#636363"/>
<path d="M12.4184 70.4695H11.167V73.0591H12.4184V70.4695Z" fill="#636363"/>
<path d="M15.9941 70.4695H14.7427V73.0591H15.9941V70.4695Z" fill="#636363"/>
<path d="M19.5693 70.4695H18.3179V73.0591H19.5693V70.4695Z" fill="#636363"/>
<path d="M23.1377 70.4695H21.8862V73.0591H23.1377V70.4695Z" fill="#636363"/>
<path d="M26.7129 70.4695H25.4614V73.0591H26.7129V70.4695Z" fill="#636363"/>
<path d="M30.2885 70.4695H29.0371V73.0591H30.2885V70.4695Z" fill="#636363"/>
</g>
<defs>
<clipPath id="clip0">
<rect width="73" height="73" fill="white" transform="translate(0.179688 0.684204)"/>
</clipPath>
</defs>
</svg>
