<svg width="78" height="78" viewBox="0 0 78 78" fill="none" xmlns="http://www.w3.org/2000/svg">
<g clip-path="url(#clip0)">
<path d="M22.9835 63.8342C27.1415 63.8342 30.5295 60.4462 30.5295 56.2882C30.5295 52.1302 27.1415 48.7422 22.9835 48.7422H18.7485V63.8342H22.9835Z" fill="#27557C"/>
<path d="M22.9837 64.4501H18.7487C18.3637 64.4501 18.0557 64.1421 18.0557 63.7571V48.7421C18.0557 48.3571 18.3637 48.0491 18.7487 48.0491H22.9837C27.5267 48.0491 31.1457 51.7451 31.1457 56.2111C31.2227 60.8311 27.5267 64.4501 22.9837 64.4501ZM19.4417 63.1411H23.0607C26.8337 63.1411 29.9137 60.0611 29.9137 56.2881C29.9137 52.5151 26.8337 49.4351 23.0607 49.4351H19.4417V63.1411Z" fill="#636363"/>
<path d="M26.2946 56.2882C26.2946 60.4462 22.9066 63.8342 18.7486 63.8342C14.5906 63.8342 11.2026 60.4462 11.2026 56.2882C11.2026 52.1302 14.5906 48.7422 18.7486 48.7422C22.9066 48.7422 26.2946 52.1302 26.2946 56.2882Z" fill="#84DBFF"/>
<path d="M18.7489 64.4501C14.2059 64.4501 10.5869 60.7541 10.5869 56.2881C10.5869 51.7451 14.2829 48.1261 18.7489 48.1261C23.2919 48.1261 26.9109 51.8221 26.9109 56.2881C26.9879 60.8311 23.2919 64.4501 18.7489 64.4501ZM18.7489 49.4351C14.9759 49.4351 11.8959 52.5151 11.8959 56.2881C11.8959 60.0611 14.9759 63.1411 18.7489 63.1411C22.5219 63.1411 25.6019 60.0611 25.6019 56.2881C25.6789 52.5151 22.5989 49.4351 18.7489 49.4351Z" fill="#636363"/>
<path d="M21.7519 56.2882C21.7519 57.9052 20.4429 59.2142 18.8259 59.2142C17.2089 59.2142 15.8999 57.9052 15.8999 56.2882C15.8999 54.6712 17.2089 53.3622 18.8259 53.3622C20.3659 53.3622 21.7519 54.6712 21.7519 56.2882Z" fill="#F8F3F3"/>
<path d="M18.7489 59.9072C16.7469 59.9072 15.1299 58.2902 15.1299 56.2882C15.1299 54.2862 16.7469 52.6692 18.7489 52.6692C20.7509 52.6692 22.3679 54.2862 22.3679 56.2882C22.3679 58.2902 20.7509 59.9072 18.7489 59.9072ZM18.7489 53.9782C17.5169 53.9782 16.4389 54.9792 16.4389 56.2882C16.4389 57.5202 17.4399 58.5982 18.7489 58.5982C19.9809 58.5982 21.0589 57.5972 21.0589 56.2882C21.0589 55.0562 20.0579 53.9782 18.7489 53.9782Z" fill="#636363"/>
<path d="M62.9469 63.8342C67.1049 63.8342 70.4929 60.4462 70.4929 56.2882C70.4929 52.1302 67.1049 48.7422 62.9469 48.7422H58.7119V63.8342H62.9469Z" fill="#27557C"/>
<path d="M62.9466 64.4501H58.7116C58.3266 64.4501 58.0186 64.1421 58.0186 63.7571V48.7421C58.0186 48.3571 58.3266 48.0491 58.7116 48.0491H62.9466C67.4896 48.0491 71.1085 51.7451 71.1085 56.2111C71.1085 60.8311 67.4126 64.4501 62.9466 64.4501ZM59.3276 63.1411H62.9466C66.7196 63.1411 69.7996 60.0611 69.7996 56.2881C69.7996 52.5151 66.7196 49.4351 62.9466 49.4351H59.3276V63.1411Z" fill="#636363"/>
<path d="M66.258 56.2882C66.258 60.4462 62.87 63.8342 58.712 63.8342C54.554 63.8342 51.166 60.4462 51.166 56.2882C51.166 52.1302 54.554 48.7422 58.712 48.7422C62.87 48.7422 66.258 52.1302 66.258 56.2882Z" fill="#84DBFF"/>
<path d="M58.7118 64.4501C54.1688 64.4501 50.5498 60.7541 50.5498 56.2881C50.5498 51.7451 54.2458 48.1261 58.7118 48.1261C63.2548 48.1261 66.8738 51.8221 66.8738 56.2881C66.8738 60.8311 63.1778 64.4501 58.7118 64.4501ZM58.7118 49.4351C54.9388 49.4351 51.8588 52.5151 51.8588 56.2881C51.8588 60.0611 54.9388 63.1411 58.7118 63.1411C62.4848 63.1411 65.5648 60.0611 65.5648 56.2881C65.5648 52.5151 62.4848 49.4351 58.7118 49.4351Z" fill="#636363"/>
<path d="M61.6376 56.2882C61.6376 57.9052 60.3286 59.2142 58.7116 59.2142C57.0946 59.2142 55.7856 57.9052 55.7856 56.2882C55.7856 54.6712 57.0946 53.3622 58.7116 53.3622C60.3286 53.3622 61.6376 54.6712 61.6376 56.2882Z" fill="#F8F3F3"/>
<path d="M58.7118 59.9072C56.7098 59.9072 55.0928 58.2902 55.0928 56.2882C55.0928 54.2862 56.7098 52.6692 58.7118 52.6692C60.7138 52.6692 62.3308 54.2862 62.3308 56.2882C62.3308 58.2902 60.7138 59.9072 58.7118 59.9072ZM58.7118 53.9782C57.4798 53.9782 56.4018 54.9792 56.4018 56.2882C56.4018 57.5202 57.4028 58.5982 58.7118 58.5982C59.9438 58.5982 61.0218 57.5972 61.0218 56.2882C61.0218 55.0562 59.9438 53.9782 58.7118 53.9782Z" fill="#636363"/>
<path d="M64.5639 56.2882C64.5639 57.9052 63.2549 59.2142 61.6379 59.2142C60.0209 59.2142 58.7119 57.9052 58.7119 56.2882C58.7119 54.6712 60.0209 53.3622 61.6379 53.3622C63.2549 53.3622 64.5639 54.6712 64.5639 56.2882Z" fill="#F8F3F3"/>
<path d="M61.6376 59.9072C59.6356 59.9072 58.0186 58.2902 58.0186 56.2882C58.0186 54.2862 59.6356 52.6692 61.6376 52.6692C63.6396 52.6692 65.2566 54.2862 65.2566 56.2882C65.2566 58.2902 63.6396 59.9072 61.6376 59.9072ZM61.6376 53.9782C60.4056 53.9782 59.3276 54.9792 59.3276 56.2882C59.3276 57.5202 60.3286 58.5982 61.6376 58.5982C62.8696 58.5982 63.9476 57.5972 63.9476 56.2882C63.9476 55.0562 62.8696 53.9782 61.6376 53.9782Z" fill="#636363"/>
<path d="M53.1676 51.2061H11.4336V17.6341C11.4336 16.1711 12.5886 15.0161 14.0516 15.0161H50.5496C52.0126 15.0161 53.1676 16.1711 53.1676 17.6341V51.2061Z" fill="#D25332"/>
<path d="M53.1677 51.8991H11.4337C11.0487 51.8991 10.7407 51.5911 10.7407 51.2061V17.6341C10.7407 15.8631 12.2037 14.3231 14.0517 14.3231H50.5497C52.3207 14.3231 53.8607 15.7861 53.8607 17.6341V51.2061C53.7837 51.5911 53.4757 51.8991 53.1677 51.8991ZM12.1267 50.5901H52.4747V17.6341C52.4747 16.5561 51.6277 15.6321 50.4727 15.6321H14.0517C12.9737 15.6321 12.0497 16.4791 12.0497 17.6341V50.5901H12.1267Z" fill="#636363"/>
<path d="M45.3136 51.2061H3.57959V17.6341C3.57959 16.1711 4.73459 15.0161 6.19759 15.0161H42.6956C44.1586 15.0161 45.3136 16.1711 45.3136 17.6341V51.2061Z" fill="#F2785F"/>
<path d="M6.19759 18.9431C6.19759 18.2501 6.81359 17.6341 7.50659 17.6341H45.3136C45.3136 16.1711 44.1586 15.0161 42.6956 15.0161H6.19759C4.73459 15.0161 3.57959 16.1711 3.57959 17.6341V51.2061H6.19759V18.9431Z" fill="#FFC8BB"/>
<path d="M45.3137 51.8991H3.57972C3.19472 51.8991 2.88672 51.5911 2.88672 51.2061V17.6341C2.88672 15.8631 4.34972 14.3231 6.19772 14.3231H42.6957C44.4667 14.3231 46.0067 15.7861 46.0067 17.6341V51.2061C45.9297 51.5911 45.6217 51.8991 45.3137 51.8991ZM4.19572 50.5901H44.6207V17.6341C44.6207 16.5561 43.7737 15.6321 42.6187 15.6321H6.19772C5.11972 15.6321 4.19572 16.4791 4.19572 17.6341V50.5901Z" fill="#636363"/>
<path d="M75.729 51.2061H53.168V28.6451H66.951C67.721 28.6451 68.491 29.0301 68.953 29.6461L75.267 37.9621C75.575 38.4241 75.806 38.9631 75.806 39.5021V51.2061H75.729Z" fill="#27557C"/>
<path d="M75.7286 51.8992H53.1676C52.7826 51.8992 52.4746 51.5912 52.4746 51.2062V28.6451C52.4746 28.2601 52.7826 27.9521 53.1676 27.9521H66.9506C67.9516 27.9521 68.8756 28.4141 69.4916 29.1841L75.8056 37.5001C76.1906 38.0391 76.4216 38.7321 76.4216 39.4251V51.1292C76.4216 51.5912 76.1136 51.8992 75.7286 51.8992ZM53.7836 50.5901H75.0356V39.5021C75.0356 39.1171 74.8816 38.7321 74.6506 38.3471L68.3366 30.0311C67.9516 29.5691 67.4126 29.2611 66.8736 29.2611H53.7836V50.5901Z" fill="#636363"/>
<path d="M75.1899 37.9622L70.6469 32.0332H57.7109V39.4252H75.7289C75.7289 38.8862 75.4979 38.3472 75.1899 37.9622Z" fill="#D1D1D1"/>
<path d="M75.7286 40.0412H57.7106C57.3256 40.0412 57.0176 39.7332 57.0176 39.3482V31.9562C57.0176 31.5712 57.3256 31.2632 57.7106 31.2632H70.6466C70.8776 31.2632 71.0316 31.3402 71.1856 31.4942L75.7286 37.4232C76.1136 37.9622 76.3446 38.5782 76.3446 39.2712C76.3446 39.4252 76.2676 39.6562 76.1906 39.7332C76.0366 39.9642 75.8826 40.0412 75.7286 40.0412ZM58.4036 38.7322H74.9586C74.8816 38.5782 74.8046 38.4242 74.7276 38.3472L70.4156 32.6492H58.4036V38.7322Z" fill="#636363"/>
<path d="M67.8745 51.2061H45.3135V28.6451H59.0965C59.8665 28.6451 60.6365 29.0301 61.0985 29.6461L67.4125 37.9621C67.7205 38.4241 67.9515 38.9631 67.9515 39.5021V51.2061H67.8745Z" fill="#5BACDD"/>
<path d="M47.9315 31.2631H61.7145C61.9455 31.2631 62.1765 31.3401 62.4075 31.3401L61.0985 29.6461C60.6365 29.0301 59.8665 28.6451 59.0965 28.6451H45.3135V51.2061H47.9315V31.2631Z" fill="#68BFEA"/>
<path d="M67.8746 51.8992H45.3136C44.9286 51.8992 44.6206 51.5912 44.6206 51.2062V28.6451C44.6206 28.2601 44.9286 27.9521 45.3136 27.9521H59.0966C60.0976 27.9521 61.0216 28.4141 61.6376 29.1841L67.8746 37.5771C68.2596 38.1161 68.4906 38.8091 68.4906 39.5021V51.2062C68.4906 51.5912 68.2596 51.8992 67.8746 51.8992ZM45.9296 50.5901H67.1816V39.5021C67.1816 39.1171 67.0276 38.7321 66.7966 38.3471L60.4826 30.0311C60.0976 29.5691 59.5586 29.2611 59.0196 29.2611H45.9296V50.5901Z" fill="#636363"/>
<path d="M75.9595 55.6722H9.12354V51.2832H75.9595C76.6525 51.2832 77.2685 51.8992 77.2685 52.5922V54.3632C77.2685 55.0562 76.6525 55.6722 75.9595 55.6722Z" fill="#D1D1D1"/>
<path d="M75.9597 56.2882H9.12366C8.73866 56.2882 8.43066 55.9802 8.43066 55.5952V51.2062C8.43066 50.8212 8.73866 50.5132 9.12366 50.5132H75.8827C76.9607 50.5132 77.8847 51.3602 77.8847 52.5152V54.2862C77.8847 55.4412 77.0377 56.2882 75.9597 56.2882ZM9.81666 54.9792H75.9597C76.3447 54.9792 76.6527 54.6712 76.6527 54.2862V52.5152C76.6527 52.1302 76.3447 51.8222 75.9597 51.8222H9.81666V54.9792Z" fill="#636363"/>
<path d="M68.3366 55.6722H2.88664C2.19364 55.6722 1.57764 55.0562 1.57764 54.3632V52.5922C1.57764 51.8992 2.19364 51.2832 2.88664 51.2832H68.4136C69.1066 51.2832 69.7226 51.8992 69.7226 52.5922V54.3632C69.6456 55.0562 69.0296 55.6722 68.3366 55.6722Z" fill="#F8F3F3"/>
<path d="M68.3368 56.2881H2.88677C1.73177 56.2881 0.884766 55.4411 0.884766 54.3631V52.5921C0.884766 51.5141 1.73177 50.5901 2.88677 50.5901H68.3368C69.4148 50.5901 70.3388 51.4371 70.3388 52.5921V54.3631C70.3388 55.4411 69.4148 56.2881 68.3368 56.2881ZM2.88677 51.8991C2.50177 51.8991 2.19377 52.2071 2.19377 52.5921V54.3631C2.19377 54.7481 2.50177 55.0561 2.88677 55.0561H68.3368C68.7218 55.0561 69.0298 54.7481 69.0298 54.3631V52.5921C69.0298 52.2071 68.7218 51.8991 68.3368 51.8991H2.88677Z" fill="#636363"/>
<path d="M67.3359 37.9622L62.7929 32.0332H49.8569V39.4252H67.8749C67.8749 38.8862 67.6439 38.3472 67.3359 37.9622Z" fill="#F8F3F3"/>
<path d="M67.8746 40.0412H49.8566C49.4716 40.0412 49.1636 39.7332 49.1636 39.3482V31.9562C49.1636 31.5712 49.4716 31.2632 49.8566 31.2632H62.7926C63.0236 31.2632 63.1776 31.3402 63.3316 31.4942L67.8746 37.4232C68.2596 37.9622 68.4906 38.5782 68.4906 39.2712C68.4906 39.4252 68.4136 39.6562 68.3366 39.7332C68.1826 39.9642 68.0286 40.0412 67.8746 40.0412ZM50.5496 38.7322H67.1046C67.0276 38.5782 66.9506 38.4242 66.8736 38.3472L62.4846 32.6492H50.5496V38.7322Z" fill="#636363"/>
<path d="M49.2407 39.4252H50.5497V50.9752H49.2407V39.4252Z" fill="#636363"/>
<path d="M52.4746 41.5812H55.6316V42.8902H52.4746V41.5812Z" fill="#636363"/>
<path d="M60.5596 37.6542H63.7936V42.6592H60.5596V37.6542Z" fill="#84DBFF"/>
<path d="M63.7165 43.3522H60.4826C60.0976 43.3522 59.7896 43.0442 59.7896 42.6592V37.6542C59.7896 37.2692 60.0976 36.9612 60.4826 36.9612H63.7165C64.1015 36.9612 64.4095 37.2692 64.4095 37.6542V42.6592C64.4095 43.0442 64.1015 43.3522 63.7165 43.3522ZM61.1756 42.0432H63.1006V38.3472H61.1756V42.0432Z" fill="#636363"/>
<path d="M18.7487 63.8342C22.9067 63.8342 26.2947 60.4462 26.2947 56.2882C26.2947 52.1302 22.9067 48.7422 18.7487 48.7422H14.5137V63.8342H18.7487Z" fill="#27557C"/>
<path d="M18.7488 64.4501H14.5138C14.1288 64.4501 13.8208 64.1421 13.8208 63.7571V48.7421C13.8208 48.3571 14.1288 48.0491 14.5138 48.0491H18.7488C23.2918 48.0491 26.9108 51.7451 26.9108 56.2111C26.9878 60.8311 23.2918 64.4501 18.7488 64.4501ZM15.2068 63.1411H18.8258C22.5988 63.1411 25.6788 60.0611 25.6788 56.2881C25.6788 52.5151 22.5988 49.4351 18.8258 49.4351H15.2068V63.1411Z" fill="#636363"/>
<path d="M22.0598 56.2882C22.0598 60.4462 18.6718 63.8342 14.5138 63.8342C10.3558 63.8342 6.96777 60.4462 6.96777 56.2882C6.96777 52.1302 10.3558 48.7422 14.5138 48.7422C18.6718 48.7422 22.0598 52.1302 22.0598 56.2882Z" fill="#5BACDD"/>
<path d="M14.5136 64.4501C9.97056 64.4501 6.35156 60.7541 6.35156 56.2881C6.35156 51.7451 10.0476 48.1261 14.5136 48.1261C19.0566 48.1261 22.6756 51.8221 22.6756 56.2881C22.7526 60.8311 19.0566 64.4501 14.5136 64.4501ZM14.5136 49.4351C10.7406 49.4351 7.66056 52.5151 7.66056 56.2881C7.66056 60.0611 10.7406 63.1411 14.5136 63.1411C18.2866 63.1411 21.3666 60.0611 21.3666 56.2881C21.4436 52.5151 18.3636 49.4351 14.5136 49.4351Z" fill="#636363"/>
<path d="M17.5166 56.2882C17.5166 57.9052 16.2076 59.2142 14.5906 59.2142C12.9736 59.2142 11.6646 57.9052 11.6646 56.2882C11.6646 54.6712 12.9736 53.3622 14.5906 53.3622C16.2076 53.3622 17.5166 54.6712 17.5166 56.2882Z" fill="#F8F3F3"/>
<path d="M14.5135 59.9072C12.5115 59.9072 10.8945 58.2902 10.8945 56.2882C10.8945 54.2862 12.5115 52.6692 14.5135 52.6692C16.5155 52.6692 18.1325 54.2862 18.1325 56.2882C18.1325 58.2902 16.5155 59.9072 14.5135 59.9072ZM14.5135 53.9782C13.2815 53.9782 12.2035 54.9792 12.2035 56.2882C12.2035 57.5202 13.2045 58.5982 14.5135 58.5982C15.7455 58.5982 16.8235 57.5972 16.8235 56.2882C16.8235 55.0562 15.8225 53.9782 14.5135 53.9782Z" fill="#636363"/>
<path d="M58.7116 63.8342C62.8696 63.8342 66.2576 60.4462 66.2576 56.2882C66.2576 52.1302 62.8696 48.7422 58.7116 48.7422H54.4766V63.8342H58.7116Z" fill="#27557C"/>
<path d="M58.7117 64.4501H54.4767C54.0917 64.4501 53.7837 64.1421 53.7837 63.7571V48.7421C53.7837 48.3571 54.0917 48.0491 54.4767 48.0491H58.7117C63.2547 48.0491 66.8737 51.7451 66.8737 56.2111C66.8737 60.8311 63.1777 64.4501 58.7117 64.4501ZM55.0927 63.1411H58.7117C62.4847 63.1411 65.5647 60.0611 65.5647 56.2881C65.5647 52.5151 62.4847 49.4351 58.7117 49.4351H55.0927V63.1411Z" fill="#636363"/>
<path d="M62.0227 56.2882C62.0227 60.4462 58.6347 63.8342 54.4767 63.8342C50.3187 63.8342 46.9307 60.4462 46.9307 56.2882C46.9307 52.1302 50.3187 48.7422 54.4767 48.7422C58.6347 48.7422 62.0227 52.1302 62.0227 56.2882Z" fill="#5BACDD"/>
<path d="M54.4769 64.4501C49.9339 64.4501 46.3149 60.7541 46.3149 56.2881C46.3149 51.7451 50.0109 48.1261 54.4769 48.1261C59.0199 48.1261 62.6389 51.8221 62.6389 56.2881C62.6389 60.8311 58.9429 64.4501 54.4769 64.4501ZM54.4769 49.4351C50.7039 49.4351 47.6239 52.5151 47.6239 56.2881C47.6239 60.0611 50.7039 63.1411 54.4769 63.1411C58.2499 63.1411 61.3299 60.0611 61.3299 56.2881C61.3299 52.5151 58.2499 49.4351 54.4769 49.4351Z" fill="#636363"/>
<path d="M57.4028 56.2882C57.4028 57.9052 56.0938 59.2142 54.4768 59.2142C52.8598 59.2142 51.5508 57.9052 51.5508 56.2882C51.5508 54.6712 52.8598 53.3622 54.4768 53.3622C56.0938 53.3622 57.4028 54.6712 57.4028 56.2882Z" fill="#F8F3F3"/>
<path d="M54.4769 59.9072C52.4749 59.9072 50.8579 58.2902 50.8579 56.2882C50.8579 54.2862 52.4749 52.6692 54.4769 52.6692C56.4789 52.6692 58.0959 54.2862 58.0959 56.2882C58.0959 58.2902 56.4789 59.9072 54.4769 59.9072ZM54.4769 53.9782C53.2449 53.9782 52.1669 54.9792 52.1669 56.2882C52.1669 57.5202 53.1679 58.5982 54.4769 58.5982C55.7859 58.5982 56.7869 57.5972 56.7869 56.2882C56.7869 55.0562 55.7089 53.9782 54.4769 53.9782Z" fill="#636363"/>
<path d="M10.0479 21.2532H19.0569V22.5622H10.0479V21.2532Z" fill="#636363"/>
<path d="M10.0479 24.6411H19.0569V25.9501H10.0479V24.6411Z" fill="#636363"/>
<path d="M10.0479 27.9521H19.0569V29.2611H10.0479V27.9521Z" fill="#636363"/>
<path d="M53.168 32.0332H54.477V39.4252H53.168V32.0332Z" fill="#636363"/>
</g>
<defs>
<clipPath id="clip0">
<rect width="77" height="77" fill="white" transform="translate(0.884766 0.848145)"/>
</clipPath>
</defs>
</svg>
