<svg width="75" height="64" viewBox="0 0 75 64" fill="none" xmlns="http://www.w3.org/2000/svg">
<g clip-path="url(#clip0)">
<path d="M71.5328 63.1628H9.49241C8.8361 63.1511 8.21065 62.8836 7.7507 62.4179C7.29076 61.9521 7.03311 61.3254 7.03321 60.6726V23.5936C7.03223 23.265 7.09647 22.9394 7.22224 22.6355C7.34802 22.3316 7.53286 22.0554 7.76617 21.8227C7.99949 21.59 8.27669 21.4053 8.58188 21.2793C8.88708 21.1533 9.21428 21.0885 9.54473 21.0885H71.5851C72.2532 21.0885 72.8939 21.3524 73.3663 21.8222C73.8387 22.292 74.1041 22.9292 74.1041 23.5936V60.6726C74.1032 61.005 74.0356 61.3339 73.9052 61.64C73.7748 61.9462 73.5843 62.2233 73.3448 62.4552C73.1053 62.6872 72.8217 62.8692 72.5106 62.9907C72.1994 63.1122 71.867 63.1708 71.5328 63.1628Z" fill="#27557C"/>
<path d="M71.533 63.8021H9.49257C8.65858 63.8002 7.8593 63.4698 7.26958 62.8834C6.67985 62.2969 6.34768 61.502 6.3457 60.6726V23.5937C6.3457 22.763 6.67701 21.9662 7.26694 21.3781C7.85688 20.79 8.65728 20.4586 9.49257 20.4567H71.533C72.3683 20.4586 73.1687 20.79 73.7586 21.3781C74.3485 21.9662 74.6798 22.763 74.6798 23.5937V60.6726C74.6779 61.502 74.3457 62.2969 73.756 62.8834C73.1662 63.4698 72.367 63.8002 71.533 63.8021ZM9.49257 21.7129C8.9956 21.7188 8.5211 21.9198 8.17248 22.2721C7.82385 22.6244 7.62935 23.0994 7.63136 23.5937V60.6726C7.63136 61.1694 7.82981 61.6459 8.18306 61.9972C8.53631 62.3485 9.01542 62.5459 9.515 62.5459H71.5554C72.0557 62.5459 72.5355 62.3487 72.89 61.9976C73.2444 61.6466 73.4445 61.1701 73.4465 60.6726V23.5937C73.4465 23.0949 73.2473 22.6165 72.8926 22.2638C72.538 21.9111 72.057 21.7129 71.5554 21.7129H9.49257Z" fill="#636363"/>
<path d="M65.8446 63.1628H3.80415C3.4737 63.1638 3.14631 63.0999 2.84074 62.9748C2.53516 62.8497 2.25741 62.6659 2.0234 62.4339C1.78939 62.2019 1.60373 61.9262 1.47705 61.6227C1.35036 61.3191 1.28515 60.9937 1.28516 60.6651V23.5936C1.28514 23.2627 1.35103 22.9352 1.47903 22.6298C1.60702 22.3244 1.79457 22.0472 2.03086 21.8143C2.26715 21.5814 2.5475 21.3973 2.85571 21.2727C3.16392 21.1482 3.49389 21.0855 3.82657 21.0885H65.867C66.5253 21.1021 67.1518 21.3723 67.6118 21.8408C68.0717 22.3094 68.3283 22.9388 68.3262 23.5936V60.6726C68.3262 61.3292 68.0655 61.9592 67.6007 62.4256C67.1359 62.892 66.5048 63.1569 65.8446 63.1628Z" fill="#27557C"/>
<path d="M3.82668 24.8425C3.82668 24.5113 3.95899 24.1936 4.19449 23.9594C4.42999 23.7252 4.74939 23.5936 5.08244 23.5936H68.3263C68.3273 23.265 68.263 22.9394 68.1372 22.6355C68.0115 22.3316 67.8266 22.0554 67.5933 21.8227C67.36 21.59 67.0828 21.4053 66.7776 21.2793C66.4724 21.1533 66.1452 21.0885 65.8148 21.0885H3.77436C3.10628 21.0885 2.46557 21.3524 1.99317 21.8222C1.52076 22.292 1.25537 22.9292 1.25537 23.5936V60.6726C1.25627 61.005 1.32389 61.3339 1.45428 61.64C1.58466 61.9462 1.77518 62.2233 2.01466 62.4552C2.25415 62.6872 2.53778 62.8692 2.84893 62.9907C3.16008 63.1122 3.4925 63.1708 3.82668 63.1628V24.8425Z" fill="#5BACDD"/>
<path d="M65.8445 63.8021H3.80413C2.97403 63.7943 2.1805 63.4614 1.5956 62.8755C1.01071 62.2897 0.681617 61.4982 0.679688 60.6726V23.5937C0.679685 22.763 1.01099 21.9662 1.60093 21.3781C2.19087 20.79 2.99127 20.4586 3.82656 20.4567H65.867C66.7022 20.4586 67.5026 20.79 68.0926 21.3781C68.6825 21.9662 69.0138 22.763 69.0138 23.5937V60.6726C69.0118 61.502 68.6797 62.2969 68.09 62.8834C67.5002 63.4698 66.701 63.8002 65.867 63.8021H65.8445ZM3.80413 21.7129C3.30258 21.7129 2.82157 21.9111 2.46691 22.2638C2.11226 22.6165 1.91302 23.0949 1.91302 23.5937V60.6726C1.915 61.1701 2.11511 61.6466 2.46955 61.9976C2.82399 62.3487 3.30387 62.5459 3.80413 62.5459H65.8445C66.3441 62.5459 66.8232 62.3485 67.1765 61.9972C67.5297 61.6459 67.7282 61.1694 67.7282 60.6726V23.5937C67.7291 23.347 67.6812 23.1026 67.5869 22.8745C67.4927 22.6464 67.3541 22.439 67.1791 22.2642C67.0041 22.0895 66.7961 21.9509 66.5671 21.8563C66.3381 21.7616 66.0925 21.7129 65.8445 21.7129H3.80413Z" fill="#636363"/>
<path d="M40.3405 15.4092H33.3591C32.753 15.4095 32.1529 15.5292 31.5935 15.7614C31.0342 15.9936 30.5266 16.3337 30.1001 16.7621L25.2789 21.6014C24.9795 21.903 24.7428 22.2604 24.5823 22.653C24.4217 23.0456 24.3406 23.4658 24.3433 23.8897C24.3461 24.3135 24.4328 24.7326 24.5985 25.1231C24.7641 25.5136 25.0055 25.8679 25.3088 26.1656C25.6121 26.4634 25.9714 26.6988 26.3662 26.8584C26.761 27.0181 27.1836 27.0988 27.6097 27.096C28.0359 27.0933 28.4574 27.0071 28.85 26.8423C29.2427 26.6776 29.5989 26.4375 29.8983 26.1359L34.3159 21.6757H40.3405L50.5062 31.7855L56.3664 26.4035L42.9567 12.8223L40.3405 15.4092Z" fill="#F8F3F3"/>
<path d="M14.0443 41.0552C13.4957 40.5088 13.1875 39.7682 13.1875 38.996C13.1875 38.2239 13.4957 37.4833 14.0443 36.9369L16.2867 34.7068C16.8433 34.1943 17.5781 33.9163 18.3365 33.9315C19.0949 33.9467 19.8178 34.2537 20.3532 34.7881C20.8886 35.3225 21.1948 36.0426 21.2073 36.7969C21.2198 37.5511 20.9377 38.2809 20.4203 38.8325L18.1779 41.0626C17.6285 41.6082 16.8838 41.9147 16.1073 41.9147C15.3309 41.9147 14.5862 41.6082 14.0368 41.0626L14.0443 41.0552Z" fill="#F8F3F3"/>
<path d="M17.8046 45.5526C17.2559 45.0062 16.9478 44.2656 16.9478 43.4935C16.9478 42.7213 17.2559 41.9807 17.8046 41.4343L20.4357 38.8251C20.7076 38.5552 21.0303 38.3412 21.3854 38.1953C21.7404 38.0494 22.1209 37.9745 22.5051 37.9749C22.8893 37.9752 23.2696 38.0508 23.6244 38.1973C23.9792 38.3439 24.3015 38.5584 24.573 38.8289C24.8444 39.0993 25.0596 39.4202 25.2063 39.7733C25.353 40.1264 25.4283 40.5048 25.4279 40.8869C25.4276 41.269 25.3516 41.6472 25.2042 42.0001C25.0569 42.3529 24.8411 42.6735 24.5692 42.9434L21.983 45.56C21.4336 46.1056 20.6889 46.4121 19.9125 46.4121C19.136 46.4121 18.3913 46.1056 17.8419 45.56L17.8046 45.5526Z" fill="#F8F3F3"/>
<path d="M21.9377 49.6782C21.3909 49.1308 21.084 48.3906 21.084 47.619C21.084 46.8475 21.3909 46.1073 21.9377 45.5599L24.5763 42.9433C25.1329 42.4307 25.8676 42.1528 26.6261 42.1679C27.3845 42.1831 28.1074 42.4902 28.6428 43.0246C29.1782 43.559 29.4844 44.279 29.4969 45.0333C29.5094 45.7876 29.2273 46.5173 28.7098 47.069L26.0713 49.6782C25.5219 50.2238 24.7772 50.5303 24.0008 50.5303C23.2243 50.5303 22.4796 50.2238 21.9303 49.6782H21.9377Z" fill="#F8F3F3"/>
<path d="M27.4392 52.4436C26.8924 51.8962 26.5854 51.156 26.5854 50.3844C26.5854 49.6129 26.8924 48.8726 27.4392 48.3253L28.7099 47.069C28.9818 46.7991 29.3045 46.5851 29.6596 46.4392C30.0146 46.2933 30.3951 46.2184 30.7793 46.2188C31.1635 46.2191 31.5438 46.2947 31.8986 46.4412C32.2534 46.5878 32.5758 46.8024 32.8472 47.0728C33.1186 47.3432 33.3338 47.6641 33.4805 48.0172C33.6272 48.3703 33.7025 48.7487 33.7022 49.1308C33.7018 49.5129 33.6258 49.8911 33.4785 50.244C33.3311 50.5968 33.1153 50.9174 32.8434 51.1873L31.5727 52.4436C31.0233 52.9892 30.2787 53.2957 29.5022 53.2957C28.7258 53.2957 27.9811 52.9892 27.4317 52.4436H27.4392Z" fill="#F8F3F3"/>
<path d="M54.6176 35.8442L47.9875 29.2729L40.9762 22.2778L29.8463 16.435L25.9669 13.5284L13.1851 25.8683L18.0063 33.8668L33.3519 49.143L35.8634 51.373C36.4334 51.9389 37.206 52.2564 38.0113 52.2557C38.8167 52.255 39.5887 51.9361 40.1577 51.3693C40.7266 50.8025 41.0459 50.0341 41.0452 49.2332C41.0445 48.4324 40.7239 47.6645 40.1539 47.0987L39.2869 46.2141L41.5293 48.4442C42.1038 48.9865 42.8687 49.2839 43.6607 49.273C44.4527 49.262 45.209 48.9436 45.7682 48.3856C46.3273 47.8276 46.6449 47.0743 46.6531 46.2867C46.6614 45.499 46.3596 44.7393 45.8123 44.1699L46.7541 45.1065C47.3315 45.6153 48.0819 45.8863 48.853 45.8646C49.6241 45.8428 50.3579 45.5298 50.9052 44.9892C51.4526 44.4487 51.7724 43.7211 51.7997 42.9545C51.827 42.1878 51.5597 41.4396 51.0521 40.8619L50.3046 40.1185C50.5869 40.3987 50.9218 40.6208 51.2903 40.7723C51.6589 40.9237 52.0538 41.0015 52.4525 41.0011C52.8513 41.0008 53.2461 40.9223 53.6144 40.7703C53.9826 40.6182 54.3172 40.3955 54.5989 40.1148C54.8806 39.8342 55.104 39.5011 55.2563 39.1346C55.4085 38.768 55.4867 38.3753 55.4864 37.9787C55.486 37.5822 55.4072 37.1896 55.2542 36.8233C55.1013 36.4571 54.8774 36.1244 54.5952 35.8442H54.6176Z" fill="#F8F3F3"/>
<path d="M50.5065 32.4025C50.3385 32.4005 50.1778 32.3339 50.058 32.2166L40.0792 22.2779H34.5778L30.3471 26.5671C29.9896 26.9326 29.5619 27.2229 29.0894 27.4209C28.6168 27.6188 28.1091 27.7203 27.5964 27.7193C26.8315 27.72 26.0835 27.4953 25.4469 27.0736C24.8102 26.6519 24.3134 26.0522 24.0192 25.35C23.7249 24.6478 23.6464 23.8747 23.7935 23.1282C23.9406 22.3816 24.3067 21.6952 24.8457 21.1554L29.6445 16.331C30.6363 15.3461 31.9803 14.7927 33.3819 14.7922H40.1091L42.5384 12.3912C42.663 12.2813 42.8208 12.2159 42.9869 12.2053C43.0692 12.2053 43.1507 12.2217 43.2264 12.2536C43.3022 12.2856 43.3707 12.3323 43.4279 12.3912L56.7778 25.9947C56.8377 26.0535 56.8853 26.1235 56.9177 26.2007C56.9502 26.2779 56.9669 26.3608 56.9669 26.4444C56.9669 26.5281 56.9502 26.611 56.9177 26.6882C56.8853 26.7654 56.8377 26.8354 56.7778 26.8942L50.955 32.2613C50.8402 32.3704 50.6877 32.4316 50.5289 32.4322L50.5065 32.4025ZM34.3162 21.0365H40.3409C40.4232 21.0364 40.5046 21.0529 40.5804 21.0848C40.6561 21.1167 40.7247 21.1635 40.7819 21.2223L50.499 30.886L55.4025 26.3664L42.9271 13.7292L40.7594 15.8701C40.7016 15.9276 40.6328 15.973 40.5571 16.0036C40.4813 16.0343 40.4002 16.0495 40.3184 16.0485H33.3594C32.301 16.0544 31.2879 16.4767 30.5415 17.223L25.7203 22.04C25.3476 22.4031 25.0926 22.8686 24.988 23.3769C24.8835 23.8852 24.934 24.4129 25.1333 24.8924C25.3326 25.3718 25.6714 25.7811 26.1063 26.0676C26.5412 26.3541 27.0523 26.5047 27.574 26.5002C27.9183 26.5054 28.2602 26.4423 28.5798 26.3147C28.8993 26.187 29.1901 25.9974 29.4352 25.7568L33.8528 21.2966C33.9721 21.1787 34.1331 21.112 34.3013 21.1108L34.3162 21.0365Z" fill="#636363"/>
<path d="M38.0085 52.8524C37.5307 52.8521 37.0576 52.758 36.6164 52.5756C36.1751 52.3932 35.7744 52.126 35.4372 51.7894L32.9556 49.6113L33.7853 48.6672L36.2968 50.8973C36.5199 51.1299 36.7877 51.3155 37.0843 51.4432C37.3809 51.5709 37.7003 51.638 38.0234 51.6407C38.6625 51.6387 39.2746 51.3849 39.7258 50.9348C40.177 50.4847 40.4303 49.8751 40.4303 49.2396C40.4278 48.9246 40.3625 48.6132 40.238 48.3236C40.1135 48.0339 39.9324 47.7717 39.7053 47.5522L34.6897 42.5271L35.5792 41.6425L40.6022 46.6304C40.9424 46.9687 41.2122 47.3702 41.3963 47.8122C41.5804 48.2541 41.6751 48.7278 41.6751 49.2062C41.6751 49.6845 41.5804 50.1582 41.3963 50.6002C41.2122 51.0421 40.9424 51.4437 40.6022 51.7819C39.9104 52.4605 38.9801 52.8444 38.0085 52.8524Z" fill="#636363"/>
<path d="M43.6592 49.9533C43.1777 49.9555 42.7005 49.8627 42.2553 49.6803C41.8101 49.4978 41.4057 49.2293 41.0655 48.8903L36.0425 43.9098L36.932 43.0177L41.955 48.0057C42.1748 48.2429 42.4405 48.4334 42.7363 48.5658C43.032 48.6983 43.3515 48.77 43.6758 48.7765C44 48.7831 44.3223 48.7244 44.6231 48.604C44.924 48.4836 45.1973 48.304 45.4266 48.0759C45.656 47.8479 45.8366 47.5761 45.9576 47.2768C46.0787 46.9776 46.1377 46.6572 46.1311 46.3347C46.1245 46.0122 46.0524 45.6944 45.9193 45.4003C45.7861 45.1063 45.5945 44.842 45.356 44.6234L38.9726 38.2602L39.8621 37.3756L46.2754 43.7314C46.6153 44.0704 46.8846 44.4727 47.068 44.9153C47.2514 45.3579 47.3453 45.8321 47.3443 46.3108C47.3486 46.79 47.2563 47.2652 47.0727 47.7083C46.8891 48.1513 46.618 48.5533 46.2754 48.8903C45.9321 49.2313 45.524 49.5009 45.0748 49.6834C44.6256 49.8659 44.1444 49.9577 43.6592 49.9533Z" fill="#636363"/>
<path d="M48.892 46.6156C48.4104 46.6182 47.9331 46.5256 47.4878 46.3431C47.0425 46.1606 46.6382 45.8919 46.2983 45.5526L41.2827 40.572L42.1647 39.68L47.1878 44.668C47.4093 44.8912 47.6736 45.068 47.9651 45.188C48.2565 45.3081 48.5691 45.3688 48.8845 45.3667C49.3606 45.3662 49.8258 45.2252 50.2213 44.9617C50.6169 44.6982 50.9249 44.3239 51.1065 43.8863C51.2882 43.4486 51.3352 42.9673 51.2417 42.503C51.1482 42.0388 50.9184 41.6125 50.5813 41.2782L45.5583 36.2977L46.4478 35.4131L51.4708 40.3936C51.9837 40.9022 52.3335 41.5505 52.4759 42.2567C52.6183 42.9629 52.5471 43.6953 52.2711 44.3612C51.9951 45.0271 51.5267 45.5967 50.9253 45.998C50.3238 46.3992 49.6163 46.6141 48.892 46.6156Z" fill="#636363"/>
<path d="M52.4722 41.6053C51.992 41.6062 51.5163 41.5127 51.0725 41.3303C50.6287 41.1479 50.2255 40.8801 49.886 40.5423L43.2559 33.9635L44.1454 33.0789L50.7755 39.6503C51.1115 39.9796 51.5374 40.2035 52.0003 40.2941C52.4632 40.3847 52.9427 40.3379 53.3791 40.1597C53.8156 39.9815 54.1897 39.6797 54.4551 39.2917C54.7204 38.9038 54.8653 38.4468 54.8716 37.9777C54.8666 37.661 54.7979 37.3486 54.6696 37.0588C54.5412 36.769 54.3557 36.5076 54.1241 36.2903L47.5464 29.7115L48.4359 28.8269L55.0585 35.4057C55.5673 35.914 55.9136 36.5607 56.0537 37.2643C56.1938 37.9679 56.1214 38.697 55.8457 39.3598C55.57 40.0226 55.1033 40.5895 54.5043 40.989C53.9054 41.3886 53.2009 41.603 52.4797 41.6053H52.4722Z" fill="#636363"/>
<path d="M17.498 34.1716L12.6469 26.1879C12.5812 26.0699 12.5552 25.9341 12.5727 25.8004C12.5902 25.6666 12.6502 25.5419 12.7441 25.4446L25.5259 13.1047C25.6346 13.0036 25.7753 12.9431 25.9239 12.9336C26.0725 12.9241 26.2198 12.9662 26.3407 13.0527L30.2051 15.9369L29.4576 16.933L25.9968 14.3461L13.9774 25.9946L18.5445 33.5472L17.498 34.1716Z" fill="#636363"/>
<path d="M16.1152 42.5346C15.4128 42.5329 14.7266 42.3244 14.143 41.9355C13.5595 41.5466 13.1048 40.9946 12.8363 40.3491C12.5677 39.7036 12.4972 38.9935 12.6338 38.3082C12.7704 37.623 13.1078 36.9933 13.6037 36.4985L15.8461 34.2684C16.3446 33.7744 16.9791 33.4385 17.6696 33.3031C18.36 33.1678 19.0753 33.2391 19.7249 33.508C20.3746 33.777 20.9295 34.2315 21.3194 34.8141C21.7094 35.3966 21.9168 36.0811 21.9156 36.781C21.9175 37.245 21.8266 37.7047 21.6482 38.1335C21.4699 38.5623 21.2076 38.9516 20.8766 39.2787L18.6342 41.5087C17.964 42.1685 17.0582 42.5374 16.1152 42.5346ZM18.3576 34.4765C17.7562 34.4827 17.1804 34.7197 16.7506 35.1381L14.5081 37.3682C14.1885 37.6884 13.9711 38.0953 13.8833 38.5379C13.7954 38.9805 13.841 39.439 14.0143 39.8559C14.1875 40.2728 14.4808 40.6296 14.8573 40.8813C15.2337 41.133 15.6765 41.2686 16.1302 41.2709C16.7409 41.2709 17.3268 41.0303 17.7596 40.6018L20.0021 38.3717C20.3217 38.0516 20.5391 37.6447 20.6269 37.2021C20.7148 36.7595 20.6692 36.301 20.4959 35.884C20.3227 35.4671 20.0294 35.1104 19.653 34.8587C19.2765 34.6069 18.8337 34.4714 18.3801 34.4691L18.3576 34.4765Z" fill="#636363"/>
<path d="M19.8748 47.0319C19.1708 47.0337 18.4821 46.8274 17.8963 46.439C17.3104 46.0507 16.8539 45.4979 16.5847 44.851C16.3155 44.204 16.2458 43.4921 16.3845 42.8056C16.5231 42.1192 16.8638 41.4892 17.3633 40.9958L20.0019 38.3791C20.3308 38.05 20.7222 37.7891 21.1533 37.6117C21.5845 37.4344 22.0468 37.344 22.5134 37.3459C23.2174 37.3461 23.9055 37.554 24.4906 37.9433C25.0757 38.3326 25.5315 38.8857 25.8004 39.5328C26.0693 40.1798 26.1391 40.8916 26.0011 41.5781C25.863 42.2646 25.5233 42.895 25.0249 43.3894L22.3938 45.9986C22.063 46.3273 21.6702 46.5878 21.238 46.7651C20.8057 46.9424 20.3424 47.0331 19.8748 47.0319ZM18.2453 45.114C18.4565 45.3283 18.709 45.498 18.9877 45.613C19.2665 45.7279 19.5656 45.7858 19.8673 45.783C20.4781 45.783 21.064 45.5425 21.4968 45.114L24.128 42.5048C24.342 42.2921 24.5116 42.0394 24.627 41.7613C24.7425 41.4832 24.8015 41.1851 24.8007 40.8843C24.8044 40.5847 24.7474 40.2875 24.6331 40.0104C24.5188 39.7332 24.3496 39.4818 24.1354 39.2712C23.6992 38.856 23.1172 38.6267 22.5134 38.6319C22.2117 38.6291 21.9125 38.687 21.6338 38.8019C21.3551 38.9169 21.1026 39.0866 20.8914 39.3009L18.2453 41.8804C17.8149 42.3096 17.5732 42.891 17.5732 43.4972C17.5732 44.1034 17.8149 44.6848 18.2453 45.114L17.7968 45.5526L18.2453 45.114Z" fill="#636363"/>
<path d="M24.016 51.1576C23.5479 51.1582 23.0842 51.0666 22.6518 50.8879C22.2194 50.7093 21.827 50.4472 21.4971 50.1169C20.8302 49.4533 20.4556 48.5536 20.4556 47.6154C20.4556 46.6773 20.8302 45.7776 21.4971 45.114L24.1282 42.4974C24.4581 42.1696 24.8496 41.9096 25.2806 41.7323C25.7115 41.555 26.1733 41.4639 26.6397 41.4641C27.343 41.4658 28.0301 41.6748 28.614 42.0647C29.198 42.4545 29.6527 43.0077 29.9206 43.6545C30.1886 44.3012 30.2578 45.0124 30.1195 45.6982C29.9812 46.384 29.6417 47.0137 29.1437 47.5077L26.5126 50.1243C26.183 50.4524 25.7914 50.7126 25.3604 50.89C24.9295 51.0673 24.4675 51.1582 24.0011 51.1576H24.016ZM26.6472 42.7204C26.3454 42.7176 26.0463 42.7755 25.7676 42.8904C25.4889 43.0054 25.2363 43.1751 25.0251 43.3894L22.394 45.9986C22.18 46.2107 22.0102 46.4626 21.8943 46.7401C21.7784 47.0175 21.7188 47.315 21.7188 47.6154C21.7188 47.9159 21.7784 48.2133 21.8943 48.4908C22.0102 48.7683 22.18 49.0202 22.394 49.2323C22.8256 49.6603 23.4103 49.9007 24.0198 49.9007C24.6293 49.9007 25.214 49.6603 25.6455 49.2323L28.2767 46.6156C28.4907 46.4036 28.6605 46.1516 28.7764 45.8742C28.8923 45.5967 28.9519 45.2992 28.9519 44.9988C28.9519 44.6984 28.8923 44.4009 28.7764 44.1234C28.6605 43.846 28.4907 43.594 28.2767 43.382C28.0633 43.1685 27.8093 42.9994 27.5296 42.8845C27.2498 42.7696 26.9498 42.7113 26.6472 42.713V42.7204Z" fill="#636363"/>
<path d="M29.5171 53.9228C28.8137 53.9211 28.1267 53.7121 27.5427 53.3223C26.9587 52.9324 26.5041 52.3792 26.2361 51.7325C25.9681 51.0858 25.8989 50.3746 26.0372 49.6888C26.1755 49.0029 26.5151 48.3733 27.013 47.8793L28.2762 46.623C28.9434 45.9623 29.8462 45.5909 30.7878 45.5897C31.4901 45.5935 32.1758 45.8035 32.7586 46.1934C33.3414 46.5832 33.7954 47.1356 34.0637 47.7812C34.332 48.4267 34.4025 49.1367 34.2666 49.822C34.1306 50.5074 33.7941 51.1375 33.2993 51.6333L32.0286 52.8895C31.6997 53.2187 31.3083 53.4795 30.8771 53.6569C30.446 53.8343 29.9837 53.9247 29.5171 53.9228ZM30.7803 46.8088C30.4786 46.8061 30.1794 46.8639 29.9007 46.9789C29.622 47.0938 29.3695 47.2636 29.1583 47.4779L27.895 48.7341C27.681 48.9462 27.5112 49.1981 27.3953 49.4756C27.2794 49.753 27.2198 50.0505 27.2198 50.351C27.2198 50.6514 27.2794 50.9489 27.3953 51.2263C27.5112 51.5038 27.681 51.7557 27.895 51.9678C28.1071 52.1814 28.3597 52.3512 28.6381 52.4673C28.9164 52.5834 29.2152 52.6435 29.5171 52.6442C29.8188 52.647 30.1179 52.5891 30.3967 52.4742C30.6754 52.3592 30.9279 52.1895 31.1391 51.9752L32.4023 50.7189C32.8204 50.2994 33.0586 49.7351 33.067 49.1446C33.0754 48.554 32.8532 47.9832 32.4472 47.5522C32.2364 47.322 31.9804 47.1372 31.695 47.0093C31.4096 46.8814 31.1008 46.8132 30.7878 46.8088H30.7803Z" fill="#636363"/>
<path d="M28.2616 11.3059L11.3612 27.6599L1.30762 17.7731L18.2454 1.46375L28.2616 11.3059Z" fill="#D25332"/>
<path d="M51.1716 1.46375L67.6833 18.1597L57.7568 27.8234L41.2451 11.1275L51.1716 1.46375Z" fill="#F2785F"/>
<path d="M11.3611 28.2769C11.1963 28.2773 11.0379 28.2132 10.9201 28.0985L0.866569 18.2192C0.748008 18.1005 0.680921 17.9404 0.679701 17.7732C0.679146 17.6895 0.696142 17.6066 0.729604 17.5298C0.763066 17.453 0.812259 17.384 0.874044 17.3271L17.767 0.973151C17.8854 0.859595 18.0435 0.796143 18.208 0.796143C18.3725 0.796143 18.5306 0.859595 18.649 0.973151L28.71 10.8599C28.8286 10.9785 28.8957 11.1386 28.8969 11.3059C28.8979 11.389 28.8819 11.4714 28.8498 11.5481C28.8176 11.6248 28.7701 11.6942 28.71 11.7519L11.8096 28.1059C11.6918 28.2206 11.5334 28.2847 11.3686 28.2843L11.3611 28.2769ZM2.20455 17.8178L11.3611 26.8124L27.3571 11.3431L18.2454 2.30377L2.20455 17.8178Z" fill="#636363"/>
<path d="M57.7571 28.4776C57.5909 28.4702 57.4336 28.4013 57.316 28.2843L40.7969 11.5512C40.6804 11.4331 40.6152 11.2743 40.6152 11.1089C40.6152 10.9435 40.6804 10.7847 40.7969 10.6666L50.7233 1.00288C50.8438 0.887687 51.0047 0.823696 51.1718 0.82447C51.254 0.824837 51.3354 0.841455 51.4111 0.873359C51.4868 0.905263 51.5554 0.951815 51.6128 1.01031L68.132 17.7211C68.2484 17.8392 68.3136 17.998 68.3136 18.1634C68.3136 18.3288 68.2484 18.4876 68.132 18.6057L58.2055 28.2694C58.1481 28.3279 58.0795 28.3745 58.0038 28.4064C57.9281 28.4383 57.8468 28.4549 57.7645 28.4553L57.7571 28.4776ZM42.1647 11.1275L57.7645 26.9611L66.8314 18.1523L51.1344 2.3112L42.1647 11.1275Z" fill="#636363"/>
</g>
<defs>
<clipPath id="clip0">
<rect width="74" height="63" fill="white" transform="translate(0.679688 0.802124)"/>
</clipPath>
</defs>
</svg>
