<svg width="57" height="75" viewBox="0 0 57 75" fill="none" xmlns="http://www.w3.org/2000/svg">
<g clip-path="url(#clip0)">
<path d="M47.4735 65.4331C47.4735 60.6897 39.1274 56.8491 28.8443 56.8491C18.5612 56.8491 10.2075 60.6897 10.2075 65.4331C10.2075 70.1765 18.5537 74.0097 28.8443 74.0097C39.1349 74.0097 47.4735 70.1765 47.4735 65.4331Z" fill="#5BACDD"/>
<path d="M28.8441 74.6165C18.0374 74.6165 9.5791 70.5909 9.5791 65.4331C9.5791 60.2753 18.0374 56.2275 28.8441 56.2275C39.6507 56.2275 48.109 60.2679 48.109 65.4331C48.109 70.5983 39.6432 74.6165 28.8441 74.6165ZM28.8441 57.4559C19.0844 57.4559 10.843 61.0967 10.843 65.4109C10.843 69.7251 19.0695 73.3585 28.8441 73.3585C38.6186 73.3585 46.8377 69.7177 46.8377 65.4109C46.8377 61.1041 38.6112 57.4559 28.8441 57.4559Z" fill="#636363"/>
<path d="M33.1892 1.2677H24.686C30.6575 1.39155 36.3425 3.82511 40.5223 8.04682C44.7022 12.2685 47.0445 17.9424 47.0471 23.8525C47.0471 38.3787 24.1924 66.4025 24.1924 66.4025H33.1892C33.1892 66.4025 56.0439 38.3787 56.0439 23.8525C56.036 17.8599 53.6246 12.1155 49.3393 7.88084C45.0541 3.64621 39.2454 1.2677 33.1892 1.2677Z" fill="#D25332"/>
<path d="M47.0248 23.8747C47.0248 38.4009 24.1701 66.4247 24.1701 66.4247C24.1701 66.4247 1.31543 38.4823 1.31543 23.8747C1.31543 17.8769 3.72333 12.1249 8.00942 7.88386C12.2955 3.64284 18.1087 1.26025 24.1701 1.26025C30.2316 1.26025 36.0448 3.64284 40.3308 7.88386C44.6169 12.1249 47.0248 17.8769 47.0248 23.8747Z" fill="#F2785F"/>
<path d="M3.85816 23.8746C3.87023 18.1054 6.11167 12.5592 10.1232 8.37253C14.1346 4.18584 19.6124 1.67568 25.434 1.35644C25.0077 1.35644 24.5964 1.29724 24.1627 1.29724C18.109 1.29919 12.3034 3.67756 8.01998 7.91037C3.73658 12.1432 1.32533 17.8846 1.31543 23.8746C1.31543 38.4822 24.1701 66.4246 24.1701 66.4246C24.1701 66.4246 24.6488 65.8474 25.4415 64.8262C20.6552 58.7212 3.85816 36.4028 3.85816 23.8746Z" fill="#FFC8BB"/>
<path d="M24.1701 67.0537C24.0758 67.0541 23.9825 67.0337 23.8972 66.994C23.8118 66.9543 23.7364 66.8964 23.6765 66.8243C22.7417 65.6699 0.679688 38.5341 0.679688 23.9043C0.679687 17.7398 3.15456 11.8277 7.55986 7.46872C11.9652 3.10974 17.94 0.660889 24.1701 0.660889C30.4001 0.660889 36.375 3.10974 40.7803 7.46872C45.1856 11.8277 47.6605 17.7398 47.6605 23.9043C47.6605 38.4823 25.606 65.6995 24.6637 66.8243C24.606 66.8994 24.5313 66.96 24.4455 67.0011C24.3597 67.0423 24.2654 67.0628 24.1701 67.0611V67.0537ZM24.1701 1.88929C18.2797 1.89712 12.6328 4.21595 8.4676 8.33731C4.30244 12.4587 1.95897 18.0462 1.95106 23.8747C1.95106 36.9135 20.8496 61.2447 24.1701 65.4183C27.4906 61.2299 46.3741 36.8765 46.3741 23.8747C46.3682 18.0482 44.0274 12.4617 39.8651 8.34037C35.7027 4.21901 30.0585 1.89908 24.1701 1.88929Z" fill="#636363"/>
<path d="M33.1892 67.0537H24.1699V65.7957H32.9124C35.0738 63.0725 55.4156 37.3205 55.4156 23.8747C55.4077 18.0462 53.0643 12.4586 48.8991 8.33728C44.7339 4.21591 39.0871 1.89709 33.1966 1.88926H24.6859V0.616455H33.2116C39.4378 0.622333 45.4073 3.07229 49.8099 7.42861C54.2126 11.7849 56.6886 17.6917 56.6945 23.8525C56.6945 38.4305 34.64 65.6477 33.7052 66.7725C33.6438 66.8447 33.567 66.9027 33.4805 66.9424C33.3939 66.982 33.2995 67.0023 33.2041 67.0019L33.1892 67.0537Z" fill="#636363"/>
<path d="M36.1357 24.8145C36.1357 27.1562 35.434 29.4454 34.1191 31.3924C32.8043 33.3395 30.9355 34.8571 28.749 35.7532C26.5626 36.6494 24.1566 36.8838 21.8355 36.427C19.5144 35.9701 17.3823 34.8425 15.7088 33.1866C14.0354 31.5308 12.8957 29.4211 12.434 27.1244C11.9723 24.8276 12.2093 22.447 13.115 20.2835C14.0206 18.12 15.5543 16.2709 17.5221 14.9699C19.4898 13.6689 21.8033 12.9745 24.1699 12.9745C27.3435 12.9745 30.387 14.2219 32.631 16.4423C34.8751 18.6628 36.1357 21.6743 36.1357 24.8145Z" fill="#F8F3F3"/>
<path d="M24.1699 37.2835C21.6775 37.2835 19.2412 36.5522 17.1688 35.1821C15.0965 33.8119 13.4814 31.8646 12.5276 29.5861C11.5738 27.3077 11.3243 24.8006 11.8105 22.3819C12.2967 19.9631 13.4969 17.7414 15.2593 15.9976C17.0216 14.2537 19.267 13.0662 21.7114 12.5851C24.1559 12.1039 26.6896 12.3509 28.9922 13.2946C31.2949 14.2384 33.263 15.8365 34.6476 17.8871C36.0323 19.9376 36.7714 22.3483 36.7714 24.8145C36.7674 28.1202 35.4385 31.2895 33.0761 33.6271C30.7137 35.9646 27.5108 37.2795 24.1699 37.2835ZM24.1699 13.6035C21.929 13.6035 19.7384 14.261 17.8752 15.4929C16.012 16.7247 14.5597 18.4757 13.7022 20.5242C12.8446 22.5727 12.6203 24.8269 13.0574 27.0016C13.4946 29.1763 14.5737 31.174 16.1583 32.7418C17.7428 34.3097 19.7616 35.3775 21.9595 35.81C24.1573 36.2426 26.4354 36.0206 28.5057 35.1721C30.576 34.3235 32.3456 32.8866 33.5905 31.043C34.8355 29.1993 35.5 27.0318 35.5 24.8145C35.496 21.8423 34.3011 18.993 32.1771 16.8914C30.0531 14.7898 27.1736 13.6074 24.1699 13.6035Z" fill="#636363"/>
</g>
<defs>
<clipPath id="clip0">
<rect width="56" height="74" fill="white" transform="translate(0.679688 0.638672)"/>
</clipPath>
</defs>
</svg>
