<svg width="74" height="66" viewBox="0 0 74 66" fill="none" xmlns="http://www.w3.org/2000/svg">
<g clip-path="url(#clip0)">
<path d="M63.6899 1.14709H11.3608V55.8752H63.6899V1.14709Z" fill="#F9DD9D"/>
<path d="M63.6897 56.502H11.3531C11.1892 56.502 11.0319 56.436 10.9159 56.3184C10.8 56.2008 10.7349 56.0414 10.7349 55.8751V1.14703C10.7349 0.980769 10.8 0.821317 10.9159 0.703753C11.0319 0.586189 11.1892 0.520142 11.3531 0.520142H63.6897C63.8536 0.520142 64.0109 0.586189 64.1268 0.703753C64.2428 0.821317 64.3079 0.980769 64.3079 1.14703V55.8751C64.3079 56.0414 64.2428 56.2008 64.1268 56.3184C64.0109 56.436 63.8536 56.502 63.6897 56.502ZM11.9788 55.2482H63.0639V1.76637H11.9788V55.2482Z" fill="#636363"/>
<path d="M53.1269 1.14709H0.797852V55.8752H53.1269V1.14709Z" fill="#F9DD9D"/>
<path d="M3.28581 3.6622H53.1344V1.14709H0.797852V55.8752H3.28581V3.6622Z" fill="#FFEECF"/>
<path d="M53.1345 56.502H0.797953C0.633979 56.502 0.47672 56.436 0.360773 56.3184C0.244826 56.2008 0.179688 56.0414 0.179688 55.8751V1.14703C0.179687 0.980769 0.244826 0.821317 0.360773 0.703753C0.47672 0.586189 0.633979 0.520142 0.797953 0.520142H53.1345C53.2985 0.520142 53.4557 0.586189 53.5717 0.703753C53.6876 0.821317 53.7527 0.980769 53.7527 1.14703V55.8751C53.7527 56.0414 53.6876 56.2008 53.5717 56.3184C53.4557 56.436 53.2985 56.502 53.1345 56.502ZM1.42367 55.2482H52.5088V1.76637H1.42367V55.2482Z" fill="#636363"/>
<path d="M33.7746 18.6849L31.5027 20.4598L29.2308 18.6849L26.9961 20.4598L24.7614 18.6849L22.5267 20.4598L20.292 18.6849V1.14709H33.7746V18.6849Z" fill="#F8F3F3"/>
<path d="M31.5025 21.0942C31.364 21.0956 31.2295 21.0474 31.1226 20.9582L29.2231 19.4476L27.3385 20.9582C27.2323 21.0427 27.1011 21.0887 26.9661 21.0887C26.831 21.0887 26.6999 21.0427 26.5936 20.9582L24.709 19.4476L22.817 20.9582C22.7107 21.0427 22.5796 21.0887 22.4445 21.0887C22.3095 21.0887 22.1783 21.0427 22.0721 20.9582L19.8374 19.1833C19.7538 19.1291 19.684 19.0557 19.6336 18.9691C19.5831 18.8825 19.5534 18.7852 19.5469 18.6848V1.14703C19.5488 0.980078 19.6156 0.820639 19.7328 0.703287C19.8499 0.585935 20.0079 0.52013 20.1726 0.520142H33.7744C33.9384 0.520142 34.0957 0.586189 34.2116 0.703753C34.3276 0.821317 34.3927 0.980769 34.3927 1.14703V18.6848C34.3927 18.7808 34.3713 18.8755 34.33 18.9618C34.2887 19.0482 34.2286 19.1239 34.1543 19.1833L31.8749 20.9582C31.77 21.0458 31.6384 21.0938 31.5025 21.0942ZM29.2231 18.073C29.3605 18.0701 29.4948 18.1155 29.603 18.2014L31.5025 19.712L33.1487 18.3827V1.76637H20.776V18.3827L22.4222 19.6742L24.3142 18.1636C24.422 18.0827 24.5526 18.039 24.6867 18.039C24.8208 18.039 24.9514 18.0827 25.0591 18.1636L26.9437 19.6742L28.8283 18.1636C28.9365 18.0777 29.0708 18.0323 29.2082 18.0352L29.2231 18.073Z" fill="#636363"/>
<path d="M18.8541 40.8374H7.82959V48.0051H18.8541V40.8374Z" fill="#D25332"/>
<path d="M18.8542 48.6319H7.82969C7.66504 48.6299 7.50779 48.5622 7.39205 48.4434C7.27631 48.3246 7.21141 48.1644 7.21143 47.9974V40.8373C7.21141 40.6704 7.27631 40.5101 7.39205 40.3914C7.50779 40.2726 7.66504 40.2049 7.82969 40.2029H18.8542C19.0188 40.2049 19.1761 40.2726 19.2918 40.3914C19.4076 40.5101 19.4725 40.6704 19.4724 40.8373V47.9974C19.4725 48.1644 19.4076 48.3246 19.2918 48.4434C19.1761 48.5622 19.0188 48.6299 18.8542 48.6319ZM8.42561 47.3706H18.2359V41.4642H8.45541L8.42561 47.3706Z" fill="#636363"/>
<path d="M65.7308 31.8192H51.2351C50.6501 33.3722 49.7378 34.777 48.5618 35.9355C47.3859 37.0939 45.9747 37.9781 44.4268 38.5262V42.5518C44.4253 47.0599 45.6478 51.4813 47.9603 55.3315C50.2729 59.1817 53.5861 62.3121 57.537 64.3796L58.5202 64.8857L59.496 64.3796C63.4385 62.306 66.7427 59.1729 69.0471 55.3231C71.3514 51.4734 72.5672 47.0552 72.5615 42.5518V38.5262C71.01 37.98 69.5948 37.0968 68.415 35.9383C67.2351 34.7798 66.3191 33.374 65.7308 31.8192Z" fill="#F8F3F3"/>
<path d="M58.4902 65.5201C58.3909 65.5209 58.2932 65.4948 58.2071 65.4446L57.2313 64.9385C53.1759 62.8245 49.7758 59.6148 47.407 55.664C45.0381 51.7133 43.7927 47.1754 43.8083 42.5518V38.5261C43.8079 38.3959 43.848 38.2689 43.9229 38.1632C43.9978 38.0574 44.1036 37.9783 44.2254 37.937C45.6886 37.4198 47.0227 36.5848 48.1344 35.4902C49.2461 34.3956 50.1085 33.068 50.6613 31.6002C50.7041 31.4807 50.7821 31.3775 50.8847 31.3046C50.9873 31.2316 51.1096 31.1924 51.2349 31.1923H65.7306C65.8572 31.1908 65.9811 31.2293 66.0852 31.3024C66.1893 31.3755 66.2684 31.4795 66.3116 31.6002C66.8657 33.0672 67.7286 34.3941 68.8401 35.4885C69.9516 36.5829 71.285 37.4185 72.7475 37.937C72.8687 37.9793 72.9739 38.0587 73.0486 38.1642C73.1234 38.2697 73.1639 38.3962 73.1647 38.5261V42.5518C73.1814 47.1719 71.9397 51.7069 69.5765 55.6571C67.2132 59.6072 63.8202 62.819 59.7714 64.9385L58.7956 65.4446C58.7072 65.4958 58.6069 65.5219 58.5051 65.5201H58.4902ZM45.082 38.9642V42.5518C45.065 46.9412 46.2441 51.2501 48.4891 55.0031C50.7342 58.7562 53.958 61.8076 57.8049 63.8207L58.4976 64.1832L59.1829 63.8207C63.0354 61.8117 66.2653 58.7621 68.5158 55.0087C70.7662 51.2554 71.9498 46.9444 71.9356 42.5518V38.9642C70.4612 38.3816 69.1168 37.5053 67.982 36.387C66.8472 35.2688 65.9449 33.9314 65.3283 32.4536H51.6595C51.043 33.9314 50.1406 35.2688 49.0058 36.387C47.871 37.5053 46.5267 38.3816 45.0522 38.9642H45.082Z" fill="#636363"/>
<path d="M48.151 40.9431V42.5519C48.1386 46.2226 49.0897 49.8305 50.9067 53.0054C52.7236 56.1803 55.341 58.8078 58.4902 60.6184C61.6394 58.8078 64.2567 56.1803 66.0737 53.0054C67.8906 49.8305 68.8417 46.2226 68.8294 42.5519V40.9431C66.609 39.6593 64.7518 37.8178 63.4363 35.5957H53.5515C52.2361 37.8204 50.3757 39.6625 48.151 40.9431Z" fill="#5BACDD"/>
<path d="M58.4902 61.2452C58.3827 61.2471 58.2769 61.2183 58.1848 61.1621C54.9474 59.2892 52.2567 56.5808 50.3858 53.3122C48.5149 50.0435 47.5306 46.3311 47.5327 42.5518V40.9431C47.5322 40.8323 47.5609 40.7235 47.6159 40.6279C47.6709 40.5322 47.7502 40.4533 47.8456 40.3993C49.9732 39.1666 51.7532 37.4007 53.0152 35.2709C53.0725 35.179 53.1516 35.1033 53.2453 35.0505C53.339 34.9977 53.4443 34.9696 53.5515 34.9688H63.4363C63.5426 34.9687 63.6472 34.9965 63.7398 35.0495C63.8325 35.1024 63.9101 35.1786 63.9652 35.2709C65.2313 37.3974 67.0103 39.1623 69.1348 40.3993C69.232 40.4516 69.3133 40.53 69.3697 40.6259C69.4262 40.7217 69.4557 40.8314 69.4551 40.9431V42.5518C69.452 46.3268 68.4643 50.0339 66.5923 53.2969C64.7203 56.56 62.0304 59.263 58.7956 61.1319C58.704 61.1892 58.5978 61.2181 58.4902 61.215V61.2452ZM48.8065 41.3056V42.5518C48.7951 46.0505 49.6819 49.4919 51.3798 52.5377C53.0776 55.5836 55.5281 58.1289 58.4902 59.9234C61.4587 58.133 63.9161 55.5896 65.6207 52.5436C67.3252 49.4976 68.2179 46.054 68.2111 42.5518V41.3056C66.1376 40.0398 64.383 38.3022 63.0862 36.2301H53.8942C52.6001 38.3018 50.848 40.0396 48.7767 41.3056H48.8065Z" fill="#636363"/>
<path d="M57.0006 52.0685C56.8238 52.0716 56.6481 52.0385 56.4843 51.971C56.3204 51.9035 56.1717 51.803 56.0471 51.6758L52.494 48.0504C52.3717 47.9259 52.2748 47.7782 52.2088 47.6158C52.1428 47.4533 52.109 47.2793 52.1094 47.1036C52.1097 46.9279 52.1442 46.754 52.2108 46.5918C52.2774 46.4297 52.3749 46.2824 52.4977 46.1584C52.6205 46.0344 52.7661 45.9362 52.9263 45.8692C53.0865 45.8023 53.2582 45.7681 53.4314 45.7684C53.6047 45.7688 53.7762 45.8037 53.9362 45.8713C54.0961 45.9388 54.2414 46.0377 54.3637 46.1622L57.0453 48.8963L63.2056 43.3449C63.3357 43.2264 63.4875 43.135 63.6525 43.076C63.8174 43.017 63.9922 42.9915 64.1669 43.0009C64.3415 43.0104 64.5126 43.0547 64.6704 43.1312C64.8282 43.2077 64.9696 43.315 65.0865 43.4469C65.2034 43.5788 65.2935 43.7328 65.3517 43.9C65.4099 44.0673 65.4351 44.2445 65.4257 44.4216C65.4164 44.5987 65.3727 44.7722 65.2973 44.9321C65.2218 45.0921 65.116 45.2355 64.9859 45.354L57.887 51.7362C57.6464 51.9514 57.3363 52.0696 57.0155 52.0685H57.0006Z" fill="#F8F3F3"/>
<path d="M56.9932 52.7029C56.4784 52.7007 55.9855 52.4915 55.6225 52.1213L52.0694 48.4959C51.7069 48.1263 51.504 47.6259 51.5054 47.1046C51.5068 46.5834 51.7123 46.084 52.0768 45.7165C52.4413 45.3489 52.9349 45.1432 53.449 45.1446C53.9631 45.146 54.4555 45.3544 54.8181 45.724L57.0527 47.9899L62.781 42.8313C62.9699 42.6459 63.1939 42.5013 63.4394 42.4062C63.685 42.3111 63.947 42.2675 64.2097 42.278C64.4723 42.2885 64.7301 42.3529 64.9675 42.4673C65.205 42.5817 65.417 42.7437 65.5909 42.9435C65.7648 43.1434 65.897 43.3769 65.9793 43.63C66.0617 43.8831 66.0926 44.1505 66.0702 44.416C66.0478 44.6816 65.9724 44.9398 65.8488 45.175C65.7252 45.4102 65.5558 45.6175 65.3509 45.7844L58.2818 52.2044C57.9279 52.5265 57.4687 52.7041 56.9932 52.7029ZM53.44 46.3962C53.255 46.3981 53.0782 46.4741 52.9484 46.6077C52.8826 46.6725 52.8303 46.75 52.7946 46.8356C52.7589 46.9212 52.7405 47.0132 52.7405 47.1062C52.7405 47.1992 52.7589 47.2912 52.7946 47.3768C52.8303 47.4624 52.8826 47.5399 52.9484 47.6047L56.5015 51.2301C56.6359 51.3451 56.8061 51.4082 56.982 51.4082C57.1578 51.4082 57.328 51.3451 57.4624 51.2301L64.5539 44.8479C64.6241 44.7881 64.6815 44.7144 64.7225 44.6312C64.7635 44.5481 64.7872 44.4573 64.7922 44.3645C64.7987 44.2717 64.7868 44.1784 64.7574 44.0903C64.728 44.0021 64.6816 43.9207 64.6209 43.8509C64.4929 43.718 64.3211 43.6377 64.1384 43.6251C63.9556 43.6126 63.7747 43.6688 63.6302 43.7829L57.4699 49.3494C57.3531 49.4582 57.2002 49.5186 57.0416 49.5186C56.8829 49.5186 56.7301 49.4582 56.6133 49.3494L53.9391 46.6153C53.8047 46.4838 53.6266 46.4084 53.44 46.4038V46.3962Z" fill="#636363"/>
</g>
<defs>
<clipPath id="clip0">
<rect width="73" height="65" fill="white" transform="translate(0.179688 0.520142)"/>
</clipPath>
</defs>
</svg>
