<svg width="75" height="75" viewBox="0 0 75 75" fill="none" xmlns="http://www.w3.org/2000/svg">
<g clip-path="url(#clip0)">
<path d="M5.43368 74.2283H2.56337C2.23033 74.2283 1.91092 74.096 1.67542 73.8605C1.43992 73.625 1.30762 73.3056 1.30762 72.9725V8.68972C1.30958 8.35727 1.44251 8.03901 1.67759 7.80393C1.91266 7.56885 2.23093 7.43592 2.56337 7.43396H5.43368C5.76741 7.43593 6.0868 7.5699 6.32209 7.80658C6.55738 8.04327 6.68944 8.36345 6.68944 8.69719V72.98C6.68746 73.3118 6.55429 73.6293 6.319 73.8632C6.08371 74.097 5.76543 74.2283 5.43368 74.2283Z" fill="#5BACDD"/>
<path d="M5.43363 74.8636H2.56332C2.06307 74.8616 1.58397 74.6615 1.23094 74.3071C0.877899 73.9526 0.679684 73.4728 0.679688 72.9725V8.68967C0.681656 8.1907 0.880742 7.71273 1.23357 7.35991C1.58639 7.00708 2.06436 6.808 2.56332 6.80603H5.43363C5.93457 6.808 6.41444 7.00787 6.76867 7.3621C7.1229 7.71632 7.32277 8.19619 7.32474 8.69714V72.98C7.32081 73.4796 7.12007 73.9576 6.76605 74.3102C6.41204 74.6628 5.93329 74.8616 5.43363 74.8636ZM2.56332 8.06926C2.3968 8.06926 2.2371 8.13541 2.11935 8.25316C2.0016 8.37091 1.93544 8.53062 1.93544 8.69714V72.98C1.93739 73.1459 2.00416 73.3045 2.12149 73.4218C2.23882 73.5391 2.3974 73.6059 2.56332 73.6078H5.43363C5.59955 73.6059 5.75813 73.5391 5.87546 73.4218C5.99279 73.3045 6.05957 73.1459 6.06151 72.98V8.69714C6.06151 8.61469 6.04527 8.53304 6.01371 8.45686C5.98216 8.38068 5.93591 8.31147 5.8776 8.25316C5.8193 8.19486 5.75008 8.14861 5.67391 8.11706C5.59773 8.0855 5.51608 8.06926 5.43363 8.06926H2.56332Z" fill="#636363"/>
<path d="M21.6238 74.2283H18.7759C18.4422 74.2283 18.122 74.0963 17.8853 73.861C17.6486 73.6257 17.5147 73.3063 17.5127 72.9726V8.68975C17.5127 8.35472 17.6458 8.03341 17.8827 7.79651C18.1196 7.5596 18.4409 7.42651 18.7759 7.42651H21.6238C21.9588 7.42651 22.2801 7.5596 22.517 7.79651C22.754 8.03341 22.887 8.35472 22.887 8.68975V72.9726C22.8851 73.3063 22.7511 73.6257 22.5144 73.861C22.2777 74.0963 21.9575 74.2283 21.6238 74.2283Z" fill="#27557C"/>
<path d="M21.6238 74.8636H18.7759C18.2743 74.8636 17.7933 74.6644 17.4387 74.3097C17.084 73.9551 16.8848 73.4741 16.8848 72.9725V8.68969C16.8848 8.18814 17.084 7.70713 17.4387 7.35248C17.7933 6.99783 18.2743 6.79858 18.7759 6.79858H21.6238C22.1253 6.79858 22.6063 6.99783 22.961 7.35248C23.3156 7.70713 23.5149 8.18814 23.5149 8.68969V72.9725C23.5149 73.4741 23.3156 73.9551 22.961 74.3097C22.6063 74.6644 22.1253 74.8636 21.6238 74.8636ZM18.7759 8.06929C18.6928 8.0683 18.6103 8.08381 18.5333 8.11492C18.4563 8.14603 18.3862 8.19213 18.3271 8.25053C18.268 8.30893 18.221 8.37848 18.189 8.45515C18.157 8.53182 18.1405 8.61408 18.1405 8.69717V72.98C18.1425 73.1472 18.2103 73.3069 18.3292 73.4244C18.4482 73.542 18.6087 73.6079 18.7759 73.6079H21.6238C21.791 73.6079 21.9515 73.542 22.0704 73.4244C22.1893 73.3069 22.2571 73.1472 22.2591 72.98V8.69717C22.2591 8.61408 22.2426 8.53182 22.2106 8.45515C22.1786 8.37848 22.1317 8.30893 22.0726 8.25053C22.0135 8.19213 21.9434 8.14603 21.8663 8.11492C21.7893 8.08381 21.7068 8.0683 21.6238 8.06929H18.7759Z" fill="#636363"/>
<path d="M52.4724 38.2822H6.68213V43.395H52.4724V38.2822Z" fill="#F8F3F3"/>
<path d="M52.472 44.0228H6.67427C6.50706 44.0208 6.34737 43.953 6.22983 43.8341C6.11229 43.7152 6.04638 43.5547 6.04639 43.3875V38.2747C6.04833 38.1088 6.1151 37.9502 6.23243 37.8329C6.34977 37.7156 6.50834 37.6488 6.67427 37.6469H52.472C52.638 37.6488 52.7965 37.7156 52.9139 37.8329C53.0312 37.9502 53.098 38.1088 53.0999 38.2747V43.3875C53.0999 43.5547 53.034 43.7152 52.9165 43.8341C52.7989 43.953 52.6393 44.0208 52.472 44.0228ZM7.30962 42.7596H51.8367V38.9026H7.30962V42.7596Z" fill="#636363"/>
<path d="M52.4724 13.7352H6.68213V18.848H52.4724V13.7352Z" fill="#F8F3F3"/>
<path d="M52.472 19.4757H6.67427C6.50706 19.4738 6.34737 19.4059 6.22983 19.287C6.11229 19.1681 6.04638 19.0076 6.04639 18.8404V13.7276C6.04638 13.5604 6.11229 13.3999 6.22983 13.281C6.34737 13.1621 6.50706 13.0943 6.67427 13.0923H52.472C52.638 13.0942 52.7965 13.161 52.9139 13.2783C53.0312 13.3957 53.098 13.5542 53.0999 13.7202V18.8329C53.0999 19.0001 53.034 19.1606 52.9165 19.2795C52.7989 19.3985 52.6393 19.4663 52.472 19.4682V19.4757ZM7.30962 18.2125H51.8367V14.3555H7.30962V18.2125Z" fill="#636363"/>
<path d="M52.4724 62.8293H6.68213V67.9421H52.4724V62.8293Z" fill="#F8F3F3"/>
<path d="M52.472 68.5699H6.67427C6.50834 68.568 6.34977 68.5012 6.23243 68.3839C6.1151 68.2665 6.04833 68.108 6.04639 67.942V62.8218C6.04833 62.6559 6.1151 62.4973 6.23243 62.38C6.34977 62.2627 6.50834 62.1959 6.67427 62.194H52.472C52.638 62.1959 52.7965 62.2627 52.9139 62.38C53.0312 62.4973 53.098 62.6559 53.0999 62.8218V67.942C53.098 68.108 53.0312 68.2665 52.9139 68.3839C52.7965 68.5012 52.638 68.568 52.472 68.5699ZM7.30962 67.3067H51.8367V63.4497H7.30962V67.3067Z" fill="#636363"/>
<path d="M56.5833 74.2283H53.7279C53.3949 74.2283 53.0755 74.096 52.84 73.8605C52.6045 73.625 52.4722 73.3056 52.4722 72.9726V8.68975C52.4722 8.35601 52.6042 8.03583 52.8395 7.79914C53.0748 7.56245 53.3942 7.42849 53.7279 7.42651H56.5833C56.917 7.42849 57.2364 7.56245 57.4717 7.79914C57.707 8.03583 57.839 8.35601 57.839 8.68975V72.9726C57.839 73.3056 57.7067 73.625 57.4712 73.8605C57.2357 74.096 56.9163 74.2283 56.5833 74.2283Z" fill="#5BACDD"/>
<path d="M56.5834 74.8636H53.728C53.2271 74.8617 52.7472 74.6618 52.393 74.3076C52.0388 73.9533 51.8389 73.4735 51.8369 72.9725V8.68969C51.8389 8.18874 52.0388 7.70887 52.393 7.35464C52.7472 7.00042 53.2271 6.80054 53.728 6.79858H56.5834C56.8349 6.7946 57.0846 6.84082 57.318 6.93455C57.5514 7.02827 57.7638 7.16761 57.9426 7.34441C58.1215 7.5212 58.2633 7.73191 58.3598 7.96419C58.4563 8.19647 58.5054 8.44565 58.5044 8.69716V72.98C58.5044 73.4803 58.3062 73.9601 57.9531 74.3146C57.6001 74.669 57.121 74.8691 56.6208 74.8711L56.5834 74.8636ZM53.728 8.06928C53.5615 8.06928 53.4018 8.13544 53.284 8.25319C53.1663 8.37094 53.1001 8.53064 53.1001 8.69716V72.98C53.1021 73.1459 53.1689 73.3045 53.2862 73.4218C53.4035 73.5392 53.5621 73.6059 53.728 73.6079H56.5834C56.7493 73.6059 56.9079 73.5392 57.0252 73.4218C57.1425 73.3045 57.2093 73.1459 57.2113 72.98V8.69716C57.2113 8.53064 57.1451 8.37094 57.0274 8.25319C56.9096 8.13544 56.7499 8.06928 56.5834 8.06928H53.728Z" fill="#636363"/>
<path d="M72.7884 74.2283H69.933C69.6 74.2283 69.2805 74.096 69.045 73.8605C68.8095 73.625 68.6772 73.3056 68.6772 72.9726V8.68975C68.6772 8.35601 68.8093 8.03583 69.0446 7.79914C69.2799 7.56245 69.5993 7.42849 69.933 7.42651H72.7884C73.1221 7.42849 73.4415 7.56245 73.6768 7.79914C73.9121 8.03583 74.0441 8.35601 74.0441 8.68975V72.9726C74.0441 73.3056 73.9118 73.625 73.6763 73.8605C73.4408 74.096 73.1214 74.2283 72.7884 74.2283Z" fill="#27557C"/>
<path d="M72.7888 74.8636H69.9334C69.4332 74.8617 68.9541 74.6615 68.6011 74.3071C68.248 73.9527 68.0498 73.4728 68.0498 72.9725V8.68969C68.0498 8.18943 68.248 7.70955 68.6011 7.35511C68.9541 7.00068 69.4332 6.80056 69.9334 6.79858H72.7888C73.2897 6.80055 73.7696 7.00043 74.1238 7.35465C74.4781 7.70888 74.6779 8.18875 74.6799 8.68969V72.9725C74.6779 73.4735 74.4781 73.9533 74.1238 74.3076C73.7696 74.6618 73.2897 74.8617 72.7888 74.8636ZM69.9334 8.06929C69.7669 8.06929 69.6072 8.13544 69.4895 8.25319C69.3717 8.37094 69.3056 8.53065 69.3056 8.69717V72.98C69.3075 73.1459 69.3743 73.3045 69.4916 73.4218C69.6089 73.5392 69.7675 73.6059 69.9334 73.6079H72.7888C72.9547 73.6059 73.1133 73.5392 73.2306 73.4218C73.348 73.3045 73.4147 73.1459 73.4167 72.98V8.69717C73.4167 8.53065 73.3505 8.37094 73.2328 8.25319C73.115 8.13544 72.9553 8.06929 72.7888 8.06929H69.9334Z" fill="#636363"/>
<path d="M68.6777 44.0228H57.8393C57.6721 44.0208 57.5124 43.953 57.3949 43.8341C57.2773 43.7152 57.2114 43.5547 57.2114 43.3875V38.2747C57.2134 38.1088 57.2801 37.9502 57.3975 37.8329C57.5148 37.7156 57.6734 37.6488 57.8393 37.6469H68.6777C68.8436 37.6488 69.0022 37.7156 69.1195 37.8329C69.2368 37.9502 69.3036 38.1088 69.3056 38.2747V43.3875C69.3056 43.5547 69.2397 43.7152 69.1221 43.8341C69.0046 43.953 68.8449 44.0208 68.6777 44.0228ZM58.5046 42.7596H68.0498V38.9026H58.5046V42.7596Z" fill="#636363"/>
<path d="M68.6777 19.4758H57.8393C57.6734 19.4739 57.5148 19.4071 57.3975 19.2898C57.2801 19.1724 57.2134 19.0139 57.2114 18.8479V13.7352C57.2114 13.568 57.2773 13.4075 57.3949 13.2886C57.5124 13.1696 57.6721 13.1018 57.8393 13.0999H68.6777C68.8449 13.1018 69.0046 13.1696 69.1221 13.2886C69.2397 13.4075 69.3056 13.568 69.3056 13.7352V18.8479C69.3036 19.0139 69.2368 19.1724 69.1195 19.2898C69.0022 19.4071 68.8436 19.4739 68.6777 19.4758ZM58.5046 18.2201H68.0498V14.3631H58.5046V18.2201Z" fill="#636363"/>
<path d="M68.6777 68.5699H57.8393C57.6734 68.568 57.5148 68.5012 57.3975 68.3839C57.2801 68.2665 57.2134 68.108 57.2114 67.942V62.8218C57.2134 62.6559 57.2801 62.4973 57.3975 62.38C57.5148 62.2627 57.6734 62.1959 57.8393 62.194H68.6777C68.8436 62.1959 69.0022 62.2627 69.1195 62.38C69.2368 62.4973 69.3036 62.6559 69.3056 62.8218V67.942C69.3036 68.108 69.2368 68.2665 69.1195 68.3839C69.0022 68.5012 68.8436 68.568 68.6777 68.5699ZM58.5046 67.3067H68.0498V63.4497H58.5046V67.3067Z" fill="#636363"/>
<path d="M52.375 48.6796H36.7603V62.8218H52.375V48.6796Z" fill="#EFC36A"/>
<path d="M52.375 63.4572H36.7602C36.6772 63.4572 36.5949 63.4407 36.5182 63.4087C36.4416 63.3767 36.372 63.3298 36.3136 63.2707C36.2552 63.2116 36.2091 63.1415 36.178 63.0644C36.1469 62.9874 36.1314 62.9049 36.1324 62.8219V48.6796C36.1324 48.5972 36.1486 48.5155 36.1802 48.4394C36.2117 48.3632 36.258 48.294 36.3163 48.2357C36.3746 48.1774 36.4438 48.1311 36.52 48.0996C36.5961 48.068 36.6778 48.0518 36.7602 48.0518H52.375C52.5409 48.0537 52.6995 48.1205 52.8168 48.2378C52.9342 48.3551 53.0009 48.5137 53.0029 48.6796V62.8219C53.0029 62.9891 52.937 63.1496 52.8194 63.2685C52.7019 63.3874 52.5422 63.4552 52.375 63.4572ZM37.4255 62.194H51.777V49.3075H37.3881L37.4255 62.194Z" fill="#636363"/>
<path d="M48.1445 48.6796H32.5298V62.8218H48.1445V48.6796Z" fill="#F9DD9D"/>
<path d="M35.0488 51.2135H48.1445V48.6796H32.5298V62.8218H35.0488V51.2135Z" fill="#FFEECF"/>
<path d="M48.1445 63.4572H32.5298C32.4467 63.4572 32.3644 63.4407 32.2878 63.4087C32.2111 63.3767 32.1415 63.3298 32.0831 63.2707C32.0247 63.2116 31.9786 63.1415 31.9475 63.0644C31.9164 62.9874 31.9009 62.9049 31.9019 62.8219V48.6796C31.9019 48.5972 31.9181 48.5155 31.9497 48.4394C31.9812 48.3632 32.0275 48.294 32.0858 48.2357C32.1441 48.1774 32.2133 48.1311 32.2895 48.0996C32.3657 48.068 32.4473 48.0518 32.5298 48.0518H48.1445C48.3104 48.0537 48.469 48.1205 48.5864 48.2378C48.7037 48.3551 48.7705 48.5137 48.7724 48.6796V62.8219C48.7724 62.9891 48.7065 63.1496 48.589 63.2685C48.4714 63.3874 48.3117 63.4552 48.1445 63.4572ZM33.195 62.194H47.5166V49.3075H33.1577L33.195 62.194Z" fill="#636363"/>
<path d="M42.0824 48.6796H38.5991V53.3961H42.0824V48.6796Z" fill="#F8F3F3"/>
<path d="M42.06 54.0241H38.5917C38.4258 54.0221 38.2672 53.9554 38.1499 53.838C38.0326 53.7207 37.9658 53.5621 37.9639 53.3962V48.6796C37.9658 48.5137 38.0326 48.3551 38.1499 48.2378C38.2672 48.1205 38.4258 48.0537 38.5917 48.0518H42.06C42.1425 48.0518 42.2241 48.068 42.3003 48.0996C42.3765 48.1311 42.4457 48.1774 42.504 48.2357C42.5623 48.294 42.6086 48.3632 42.6401 48.4394C42.6717 48.5155 42.6879 48.5972 42.6879 48.6796V53.3962C42.6879 53.5627 42.6218 53.7224 42.504 53.8402C42.3863 53.9579 42.2266 54.0241 42.06 54.0241ZM39.2121 52.7683H41.4546V49.3075H39.2121V52.7683Z" fill="#636363"/>
<path d="M42.7324 24.1326H27.1177V38.2748H42.7324V24.1326Z" fill="#EFC36A"/>
<path d="M42.7327 38.9101H27.1104C26.9419 38.9101 26.7803 38.8432 26.6612 38.724C26.542 38.6048 26.4751 38.4432 26.4751 38.2747V24.1325C26.4771 23.9653 26.5449 23.8056 26.6638 23.6881C26.7827 23.5705 26.9432 23.5046 27.1104 23.5046H42.7327C42.8986 23.5066 43.0572 23.5734 43.1745 23.6907C43.2918 23.808 43.3586 23.9666 43.3605 24.1325V38.2747C43.3606 38.442 43.2946 38.6024 43.1771 38.7214C43.0596 38.8403 42.8999 38.9081 42.7327 38.9101ZM27.7832 37.6469H42.1347V24.7604H27.7458L27.7832 37.6469Z" fill="#636363"/>
<path d="M38.502 24.1326H22.8872V38.2748H38.502V24.1326Z" fill="#F9DD9D"/>
<path d="M25.4062 26.6516H38.502V24.1326H22.8872V38.2748H25.4062V26.6516Z" fill="#FFEECF"/>
<path d="M38.502 38.9101H22.8872C22.8041 38.9101 22.7219 38.8936 22.6452 38.8616C22.5685 38.8296 22.499 38.7827 22.4406 38.7236C22.3822 38.6645 22.3361 38.5944 22.305 38.5173C22.2738 38.4403 22.2583 38.3578 22.2593 38.2747V24.1325C22.2593 23.966 22.3255 23.8063 22.4432 23.6885C22.561 23.5708 22.7207 23.5046 22.8872 23.5046H38.502C38.6679 23.5066 38.8265 23.5734 38.9438 23.6907C39.0611 23.808 39.1279 23.9666 39.1298 24.1325V38.2747C39.1298 38.442 39.0639 38.6024 38.9464 38.7214C38.8288 38.8403 38.6692 38.9081 38.502 38.9101ZM23.5525 37.6469H37.8741V24.7604H23.5151L23.5525 37.6469Z" fill="#636363"/>
<path d="M32.4398 24.1326H28.9565V28.8491H32.4398V24.1326Z" fill="#F8F3F3"/>
<path d="M32.4324 29.477H28.9492C28.7832 29.475 28.6247 29.4082 28.5073 29.2909C28.39 29.1736 28.3232 29.015 28.3213 28.8491V24.1325C28.3232 23.9666 28.39 23.808 28.5073 23.6907C28.6247 23.5734 28.7832 23.5066 28.9492 23.5046H32.4324C32.5149 23.5046 32.5965 23.5209 32.6727 23.5524C32.7489 23.584 32.8181 23.6302 32.8764 23.6885C32.9347 23.7468 32.9809 23.8161 33.0125 23.8922C33.044 23.9684 33.0603 24.0501 33.0603 24.1325V28.8491C33.0603 28.9315 33.044 29.0132 33.0125 29.0894C32.9809 29.1655 32.9347 29.2348 32.8764 29.2931C32.8181 29.3514 32.7489 29.3976 32.6727 29.4292C32.5965 29.4607 32.5149 29.477 32.4324 29.477ZM29.5845 28.2212H31.8269V24.7604H29.5845V28.2212Z" fill="#636363"/>
<path d="M26.5273 48.6796H10.9126V62.8218H26.5273V48.6796Z" fill="#EFC36A"/>
<path d="M26.5274 63.4572H10.9052C10.738 63.4552 10.5783 63.3874 10.4608 63.2685C10.3432 63.1496 10.2773 62.9891 10.2773 62.8219V48.6796C10.2793 48.5137 10.3461 48.3551 10.4634 48.2378C10.5807 48.1205 10.7393 48.0537 10.9052 48.0518H26.5274C26.6934 48.0537 26.8519 48.1205 26.9693 48.2378C27.0866 48.3551 27.1534 48.5137 27.1553 48.6796V62.8219C27.1553 62.9891 27.0894 63.1496 26.9719 63.2685C26.8543 63.3874 26.6947 63.4552 26.5274 63.4572ZM11.578 62.194H25.9295V49.3075H11.5406L11.578 62.194Z" fill="#636363"/>
<path d="M22.2969 48.6796H6.68213V62.8218H22.2969V48.6796Z" fill="#F9DD9D"/>
<path d="M9.17088 51.2135H22.2965V48.6796H6.67432V62.8218H9.17088V51.2135Z" fill="#FFEECF"/>
<path d="M22.289 63.4572H6.67427C6.50706 63.4552 6.34737 63.3874 6.22983 63.2685C6.11229 63.1496 6.04638 62.9891 6.04639 62.8219V48.6796C6.04833 48.5137 6.1151 48.3551 6.23243 48.2378C6.34977 48.1205 6.50834 48.0537 6.67427 48.0518H22.289C22.4562 48.0517 22.6167 48.1177 22.7357 48.2352C22.8546 48.3527 22.9224 48.5124 22.9244 48.6796V62.8219C22.9244 62.9904 22.8574 63.152 22.7383 63.2711C22.6191 63.3903 22.4575 63.4572 22.289 63.4572ZM7.33952 62.194H21.691V49.3075H7.30962L7.33952 62.194Z" fill="#636363"/>
<path d="M16.2347 48.6796H12.7515V53.3961H16.2347V48.6796Z" fill="#F8F3F3"/>
<path d="M16.2273 54.0241H12.7441C12.5782 54.0221 12.4196 53.9554 12.3023 53.838C12.1849 53.7207 12.1182 53.5621 12.1162 53.3962V48.6796C12.1182 48.5137 12.1849 48.3551 12.3023 48.2378C12.4196 48.1205 12.5782 48.0537 12.7441 48.0518H16.2273C16.3932 48.0537 16.5518 48.1205 16.6692 48.2378C16.7865 48.3551 16.8533 48.5137 16.8552 48.6796V53.3962C16.8533 53.5621 16.7865 53.7207 16.6692 53.838C16.5518 53.9554 16.3932 54.0221 16.2273 54.0241ZM13.372 52.7683H15.6144V49.3075H13.372V52.7683Z" fill="#636363"/>
<path d="M49.4224 1.49158H33.8076V13.7277H49.4224V1.49158Z" fill="#D25332"/>
<path d="M49.4152 14.3631H33.8378C33.6706 14.3611 33.5109 14.2933 33.3934 14.1744C33.2759 14.0554 33.2099 13.895 33.21 13.7277V1.49157C33.21 1.32505 33.2761 1.16534 33.3939 1.04759C33.5116 0.929843 33.6713 0.863692 33.8378 0.863692H49.4152C49.4983 0.862703 49.5807 0.878213 49.6578 0.909324C49.7348 0.940435 49.8049 0.986527 49.864 1.04493C49.9231 1.10333 49.97 1.17288 50.0021 1.24955C50.0341 1.32622 50.0506 1.40848 50.0506 1.49157V13.7277C50.0506 13.8962 49.9836 14.0578 49.8645 14.177C49.7453 14.2961 49.5837 14.3631 49.4152 14.3631ZM34.4358 13.0924H48.7873V2.11945H34.4358V13.0924Z" fill="#636363"/>
<path d="M45.1919 1.49158H29.5771V13.7277H45.1919V1.49158Z" fill="#F2785F"/>
<path d="M32.0888 4.01057H45.192V1.49158H29.5698V13.7277H32.0888V4.01057Z" fill="#FFC8BB"/>
<path d="M45.192 14.3631H29.5772C29.4938 14.3631 29.4112 14.3467 29.3341 14.3147C29.257 14.2828 29.187 14.236 29.128 14.177C29.069 14.118 29.0222 14.048 28.9903 13.9709C28.9583 13.8938 28.9419 13.8112 28.9419 13.7277V1.49157C28.9419 1.40848 28.9584 1.32622 28.9904 1.24955C29.0224 1.17288 29.0693 1.10333 29.1284 1.04493C29.1875 0.986527 29.2576 0.940435 29.3347 0.909324C29.4117 0.878213 29.4942 0.862703 29.5772 0.863692H45.192C45.3585 0.863692 45.5182 0.929843 45.636 1.04759C45.7537 1.16534 45.8199 1.32505 45.8199 1.49157V13.7277C45.8199 13.895 45.754 14.0554 45.6364 14.1744C45.5189 14.2933 45.3592 14.3611 45.192 14.3631ZM30.2051 13.0924H44.5566V2.11945H30.2051V13.0924Z" fill="#636363"/>
<path d="M39.1224 1.49158H35.6392V6.02127H39.1224V1.49158Z" fill="#F8F3F3"/>
<path d="M39.1223 6.6491H35.6391C35.4726 6.6491 35.3129 6.58295 35.1951 6.4652C35.0774 6.34745 35.0112 6.18775 35.0112 6.02122V1.49153C35.0112 1.325 35.0774 1.1653 35.1951 1.04755C35.3129 0.929799 35.4726 0.863647 35.6391 0.863647H39.1223C39.2889 0.863647 39.4486 0.929799 39.5663 1.04755C39.6841 1.1653 39.7502 1.325 39.7502 1.49153V6.02122C39.7502 6.18775 39.6841 6.34745 39.5663 6.4652C39.4486 6.58295 39.2889 6.6491 39.1223 6.6491ZM36.267 5.39334H38.5094V2.11941H36.267V5.39334Z" fill="#636363"/>
</g>
<defs>
<clipPath id="clip0">
<rect width="74" height="74" fill="white" transform="translate(0.679688 0.863647)"/>
</clipPath>
</defs>
</svg>
