<svg width="26" height="30" viewBox="0 0 26 30" fill="none" xmlns="http://www.w3.org/2000/svg">
<g clip-path="url(#clip0)">
<path d="M25.982 7.41995C25.9809 6.57333 25.3837 5.88544 24.6501 5.88544C24.6495 5.88544 24.6489 5.88544 24.6484 5.88544L1.32996 5.92241C0.974238 5.92294 0.639945 6.08331 0.388731 6.37393C0.137567 6.66462 -0.000455899 7.05081 1.13138e-06 7.46114L0.0180284 22.58C0.0184855 22.9904 0.157473 23.3762 0.409348 23.666C0.660765 23.9554 0.994652 24.1146 1.34976 24.1146C1.35037 24.1146 1.35103 24.1146 1.35154 24.1146L24.6699 24.0776C25.4041 24.0764 26.0008 23.3862 25.9999 22.5389L25.982 7.41995ZM23.1872 7.4244L13.001 15.5949L2.795 7.45674L23.1872 7.4244ZM17.3086 17.1369L23.35 22.5431L2.63275 22.5759L8.71105 17.1369C9.00162 16.8768 9.05453 16.3943 8.82917 16.0589C8.60375 15.7236 8.18552 15.6625 7.89485 15.9226L1.3488 21.7801L1.33255 8.15858L12.6234 17.1619C12.7374 17.2528 12.8697 17.2981 13.002 17.2981C13.1349 17.2981 13.2679 17.2523 13.3821 17.1607L24.6511 8.12178L24.6681 21.778L18.1247 15.9226C17.8342 15.6627 17.4158 15.7237 17.1904 16.0589C16.965 16.3942 17.0179 16.8769 17.3086 17.1369Z" fill="white"/>
</g>
<defs>
<clipPath id="clip0">
<rect width="26" height="30" fill="white" transform="matrix(-1 0 0 1 26 0)"/>
</clipPath>
</defs>
</svg>
