<svg width="28" height="29" viewBox="0 0 28 29" fill="none" xmlns="http://www.w3.org/2000/svg">
<path d="M25.8237 11.4251C26.3307 10.9132 26.5097 10.162 26.291 9.46458C26.0722 8.76717 25.501 8.26845 24.8003 8.16304L18.6737 7.24098C18.5534 7.22292 18.4495 7.1447 18.3957 7.03175L15.6558 1.28188C15.3425 0.624282 14.708 0.21579 13.9999 0.21579C13.2919 0.21579 12.6574 0.624282 12.3441 1.28188L9.60422 7.03181C9.55035 7.1447 9.44644 7.22292 9.32613 7.24104L3.1996 8.16304C2.49894 8.26845 1.92784 8.76717 1.70898 9.46458C1.49012 10.162 1.66917 10.9132 2.17623 11.4251L6.60947 15.9008C6.69648 15.9887 6.73624 16.1153 6.71568 16.2394L5.66912 22.5591C5.54947 23.2819 5.83089 23.9986 6.40368 24.4296C6.97648 24.8608 7.72176 24.9164 8.34837 24.5753L13.8281 21.5915C13.9357 21.5329 14.0642 21.5329 14.1719 21.5915L19.6517 24.5753C19.9242 24.7237 20.2192 24.797 20.5127 24.797C20.8939 24.797 21.2726 24.6733 21.5962 24.4295C22.169 23.9985 22.4505 23.2817 22.3308 22.559L21.2842 16.2393C21.2637 16.1152 21.3034 15.9886 21.3904 15.9007L25.8237 11.4251ZM19.8284 16.498L20.8749 22.8179C20.9099 23.0294 20.7839 23.15 20.728 23.1919C20.6721 23.2339 20.5224 23.3209 20.3391 23.221L14.8593 20.2372C14.5903 20.0908 14.2952 20.0175 14.0001 20.0175C13.7049 20.0175 13.4098 20.0908 13.1408 20.2372L7.66106 23.2209C7.47764 23.3207 7.32796 23.2338 7.27212 23.1918C7.21629 23.1499 7.09018 23.0293 7.12523 22.8178L8.17179 16.498C8.27454 15.8775 8.07608 15.2448 7.64072 14.8053L3.20747 10.3296C3.05911 10.1797 3.09268 10.0054 3.11407 9.93747C3.13534 9.86945 3.20714 9.70797 3.41217 9.67715L9.53865 8.7551C10.1402 8.66459 10.66 8.27354 10.929 7.70889L13.6689 1.95896C13.7606 1.76655 13.931 1.74577 14.0001 1.74577C14.0691 1.74577 14.2395 1.7665 14.3312 1.95896V1.95902L17.0711 7.70895C17.3401 8.2736 17.8599 8.66465 18.4614 8.75516L24.588 9.67721C24.793 9.70802 24.8648 9.86951 24.8861 9.93753C24.9074 10.0056 24.9411 10.1799 24.7926 10.3297L20.3594 14.8053C19.9241 15.2448 19.7256 15.8775 19.8284 16.498Z" fill="white"/>
</svg>
