<svg width="28" height="28" viewBox="0 0 28 28" fill="none" xmlns="http://www.w3.org/2000/svg">
<g clip-path="url(#clip0)">
<path d="M27.7023 11.3785L14.4298 1.66072C14.1739 1.47336 13.8262 1.47336 13.5704 1.66072L0.297805 11.3785C-0.0263824 11.6159 -0.09682 12.0711 0.140578 12.3953C0.377977 12.7195 0.83325 12.7898 1.15738 12.5526L14 3.14937L26.8427 12.5525C26.9722 12.6474 27.1227 12.693 27.2719 12.693C27.4959 12.693 27.7169 12.59 27.8594 12.3953C28.0969 12.0711 28.0264 11.6159 27.7023 11.3785Z" fill="white"/>
<path d="M24.1855 12.7172C23.7838 12.7172 23.458 13.0429 23.458 13.4447V25.0248H17.6381V18.7036C17.6381 16.6977 16.0061 15.0658 14.0002 15.0658C11.9944 15.0658 10.3624 16.6978 10.3624 18.7036V25.0248H4.54242V13.4448C4.54242 13.043 4.21664 12.7173 3.81491 12.7173C3.41318 12.7173 3.0874 13.043 3.0874 13.4448V25.7524C3.0874 26.1542 3.41318 26.4799 3.81491 26.4799H11.0899C11.4725 26.4799 11.7856 26.1843 11.8146 25.809C11.8163 25.792 11.8174 25.7734 11.8174 25.7524V18.7037C11.8174 17.5001 12.7966 16.5209 14.0002 16.5209C15.2039 16.5209 16.183 17.5001 16.183 18.7037V25.7524C16.183 25.7733 16.1841 25.7916 16.1859 25.8084C16.2145 26.1839 16.5277 26.4799 16.9105 26.4799H24.1856C24.5874 26.4799 24.9131 26.1542 24.9131 25.7524V13.4448C24.913 13.0429 24.5873 12.7172 24.1855 12.7172Z" fill="white"/>
</g>
<defs>
<clipPath id="clip0">
<rect width="28" height="28" fill="white" transform="matrix(-1 0 0 1 28 0)"/>
</clipPath>
</defs>
</svg>
