<svg width="27" height="27" viewBox="0 0 27 27" fill="none" xmlns="http://www.w3.org/2000/svg">
<path d="M19.3316 10.9871C20.8188 10.9871 22.029 9.77714 22.029 8.28986C22.029 6.80238 20.8188 5.59238 19.3316 5.59238C17.8443 5.59238 16.6343 6.80238 16.6343 8.28986C16.6343 9.77714 17.8443 10.9871 19.3316 10.9871ZM19.3316 7.17441C19.9467 7.17441 20.447 7.67477 20.447 8.28986C20.447 8.90476 19.9467 9.40511 19.3316 9.40511C18.7167 9.40511 18.2163 8.90476 18.2163 8.28986C18.2163 7.67477 18.7167 7.17441 19.3316 7.17441Z" fill="white"/>
<path d="M26.0738 1.95117H2.56613C2.05554 1.95117 1.64014 2.39344 1.64014 2.93706V24.1219C1.64014 24.6655 2.05554 25.1077 2.56613 25.1077H26.0738C26.5844 25.1077 26.9998 24.6655 26.9998 24.1219V2.93706C26.9998 2.39344 26.5844 1.95117 26.0738 1.95117ZM25.5138 3.5332V16.0527L20.8406 11.0769C20.5358 10.7531 20.0403 10.7533 19.7358 11.0775L13.1264 18.1145L8.90448 13.6197C8.75686 13.4623 8.56048 13.3756 8.35152 13.3756C8.14276 13.3756 7.94657 13.4621 7.79895 13.6193L3.12605 18.5944V3.5332H25.5138ZM3.12605 23.5257V20.8317L8.35152 15.2682L12.5732 19.763C12.721 19.9204 12.9174 20.0073 13.1264 20.0073C13.335 20.0073 13.5313 19.9206 13.6788 19.7634L20.2884 12.7263L25.514 18.29V23.5257H3.12605Z" fill="white"/>
</svg>
