<svg width="29" height="29" viewBox="0 0 29 29" fill="none" xmlns="http://www.w3.org/2000/svg">
<g clip-path="url(#clip0)">
<path d="M25.3077 27.9786L21.4845 19.8913C21.4082 19.73 21.276 19.6063 21.1175 19.5389L19.2155 18.6922L22.5111 13.1687C22.519 13.1554 22.5264 13.142 22.5335 13.1283C23.1887 11.8494 23.521 10.4674 23.521 9.02099C23.521 6.58777 22.5668 4.30663 20.8342 2.59783C19.1019 0.88944 16.807 -0.0332927 14.3723 0.000918267C12.0076 0.0337132 9.78121 0.98352 8.10301 2.67549C6.42497 4.36734 5.49312 6.60142 5.47908 8.96634C5.47047 10.4115 5.81195 11.8506 6.46638 13.1282C6.4734 13.1419 6.48082 13.1554 6.48869 13.1686L9.78427 18.692L7.87129 19.5434C7.71479 19.613 7.58849 19.7364 7.51531 19.8913L3.69223 27.9786C3.56428 28.249 3.61826 28.5706 3.82749 28.7846C4.03667 28.9985 4.3568 29.0598 4.6302 28.9381L9.41962 26.8058L14.209 28.9381C14.3943 29.0205 14.6059 29.0205 14.7911 28.9381L19.5806 26.8058L24.37 28.9381C24.4635 28.9797 24.5626 29 24.6608 29C24.8495 29 25.0351 28.9254 25.1727 28.7846C25.3817 28.5706 25.4357 28.2491 25.3077 27.9786ZM7.72992 12.4556C7.1788 11.372 6.90302 10.201 6.91033 8.97489C6.93457 4.87247 10.291 1.4887 14.3922 1.43189C16.4407 1.40436 18.372 2.17949 19.8293 3.61686C21.2871 5.05456 22.0899 6.97378 22.0899 9.02105C22.0899 10.2308 21.8141 11.3862 21.2701 12.4556L15.1146 22.7726C14.9266 23.0875 14.6222 23.1215 14.5001 23.1215C14.3778 23.1215 14.0734 23.0875 13.8856 22.7726L7.72992 12.4556ZM19.8715 25.3688C19.6862 25.2864 19.4746 25.2864 19.2894 25.3688L14.4999 27.5011L9.71053 25.3688C9.52525 25.2864 9.3137 25.2864 9.12843 25.3688L5.81054 26.846L8.6957 20.7431L10.5228 19.9299L12.6563 23.5058C13.0474 24.1613 13.7366 24.5526 14.4998 24.5526C15.2631 24.5526 15.9523 24.1613 16.3433 23.5059L18.4769 19.93L20.3041 20.7434L23.1891 26.8461L19.8715 25.3688Z" fill="white"/>
<path d="M14.5002 5.75507C12.6994 5.75507 11.2344 7.22007 11.2344 9.02085C11.2344 10.8216 12.6994 12.2866 14.5002 12.2866C16.301 12.2867 17.766 10.8216 17.766 9.02085C17.766 7.22007 16.301 5.75507 14.5002 5.75507ZM14.5002 10.8555C13.4886 10.8556 12.6655 10.0326 12.6655 9.02085C12.6655 8.00919 13.4885 7.18615 14.5002 7.18615C15.5119 7.18615 16.3349 8.00919 16.3349 9.02085C16.3349 10.0325 15.5119 10.8555 14.5002 10.8555Z" fill="white"/>
</g>
<defs>
<clipPath id="clip0">
<rect width="29" height="29" fill="white" transform="matrix(-1 0 0 1 29 0)"/>
</clipPath>
</defs>
</svg>
