<svg width="28" height="28" viewBox="0 0 28 28" fill="none" xmlns="http://www.w3.org/2000/svg">
<g clip-path="url(#clip0)">
<path d="M26.9248 15.4848L16.0583 4.61226C15.4845 4.03843 14.7174 3.71829 13.908 3.71829C13.8415 3.71829 13.7751 3.71829 13.7086 3.72433L5.85019 4.2438C4.9985 4.29816 4.30991 4.98676 4.25555 5.83844L4.0683 8.62907C3.66963 8.39954 3.28909 8.1096 2.9448 7.7653C2.10519 6.9257 1.58573 5.88072 1.477 4.81763C1.37431 3.8089 1.66425 2.90889 2.29244 2.2807C3.62735 0.945787 6.08576 1.24176 7.78309 2.93305C8.06698 3.21695 8.52605 3.21695 8.80994 2.93305C9.09384 2.64916 9.09384 2.19009 8.80994 1.9062C6.53878 -0.34684 3.15621 -0.636775 1.25955 1.25988C0.31726 2.20217 -0.117643 3.51292 0.0273247 4.96864C0.166252 6.36395 0.836727 7.72302 1.9119 8.7982C2.51593 9.40223 3.21661 9.87941 3.95957 10.2056L3.73004 13.7029C3.66963 14.5788 3.99581 15.4365 4.61796 16.0587L15.4905 26.9312C16.1791 27.6198 17.0912 27.9943 18.0637 27.9943C19.0362 27.9943 19.9483 27.6138 20.6369 26.9312L26.9369 20.6312C27.6255 19.9426 28 19.0305 28 18.058C27.994 17.0795 27.6134 16.1674 26.9248 15.4848ZM25.904 19.5983L19.5979 25.9044C19.1872 26.3151 18.6375 26.5446 18.0516 26.5446C17.4657 26.5446 16.916 26.3151 16.5053 25.9044L5.63274 15.0318C5.30656 14.7056 5.13743 14.2586 5.16763 13.7996L5.37904 10.6345C5.49985 10.6526 5.62066 10.6707 5.74146 10.6828C5.92267 10.7009 6.10388 10.713 6.27905 10.713C7.51732 10.713 8.62269 10.2781 9.44418 9.45659C9.72807 9.1727 9.72807 8.71363 9.44418 8.42974C9.16028 8.14584 8.70122 8.14584 8.41732 8.42974C7.78913 9.05793 6.88912 9.34787 5.88039 9.24518C5.74146 9.2331 5.60858 9.20894 5.47569 9.18478L5.69314 5.94717C5.69918 5.81428 5.80791 5.7116 5.94079 5.69952L13.7992 5.18005C13.8355 5.18005 13.8717 5.17401 13.908 5.17401C14.3308 5.17401 14.7415 5.34314 15.0375 5.63911L25.904 16.5056C26.3148 16.9164 26.5443 17.466 26.5443 18.052C26.5443 18.6379 26.3148 19.1875 25.904 19.5983Z" fill="white"/>
</g>
<defs>
<clipPath id="clip0">
<rect width="28" height="28" fill="white" transform="matrix(-1 0 0 1 28 0)"/>
</clipPath>
</defs>
</svg>
